<?xml version="1.0" standalone="no"?>
<!DOCTYPE svg PUBLIC "-//W3C//DTD SVG 1.1//EN" "http://www.w3.org/Graphics/SVG/1.1/DTD/svg11.dtd" >
<svg xmlns="http://www.w3.org/2000/svg">
<metadata></metadata>
<defs>
<font id="pf_agora_sans_prolight" horiz-adv-x="1089" >
<font-face units-per-em="2048" ascent="1536" descent="-512" />
<missing-glyph horiz-adv-x="540" />
<glyph unicode="&#xfb01;" horiz-adv-x="1050" d="M786 0v907h-475v-907h-110v907h-142v66l30 6t42.5 8t42 8t29.5 6v152q0 96 26.5 159.5t74.5 101.5t113.5 53.5t145.5 15.5q68 0 143.5 -9.5t139.5 -21.5q-4 -18 -9.5 -46t-9.5 -44q-63 10 -128.5 16t-120.5 6q-72 0 -122 -11t-82 -38.5t-47.5 -76t-15.5 -121.5v-140h590 v-997h-115z" />
<glyph unicode="&#xfb02;" horiz-adv-x="1064" d="M625 907h-310v-112.5v-158.5t-1 -182.5t-1 -182.5v-158.5v-112.5h-110v907h-142v66l30 6t42.5 8t42 8t29.5 6v142q0 98 26.5 161.5t74.5 101.5t117 53.5t152 15.5q63 -4 132 -9.5t127 -15.5q16 2 40.5 7t38.5 7v-184.5v-255.5t-1 -291.5t-1 -292v-256v-184.5h-110v1356 q-55 8 -114.5 14t-108.5 6q-70 0 -120 -11t-82 -39t-46.5 -76t-14.5 -122v-131h310v-90z" />
<glyph horiz-adv-x="0" />
<glyph horiz-adv-x="682" />
<glyph unicode=" "  horiz-adv-x="540" />
<glyph unicode="&#x09;" horiz-adv-x="540" />
<glyph unicode="&#xa0;" horiz-adv-x="540" />
<glyph unicode="!" horiz-adv-x="423" d="M274 1419l-2 -628l-14 -453h-76l-16 453l-6 628h114zM219 154q35 0 61.5 -25t26.5 -59q0 -39 -26.5 -64.5t-61.5 -25.5q-37 0 -63.5 25.5t-26.5 64.5q0 35 26.5 59.5t63.5 24.5z" />
<glyph unicode="&#x22;" horiz-adv-x="471" d="M303 1010l-22 391h110l-22 -391h-66zM113 1010l-27 391h113l-25 -391h-61z" />
<glyph unicode="#" horiz-adv-x="1062" d="M827 858l-82 -375h162l-14 -71h-162q-6 -23 -18.5 -81.5t-26.5 -124t-26.5 -124.5t-16.5 -82h-78l86 412h-332l-88 -412h-77l88 412h-150l14 71h152q4 20 16.5 73.5t24.5 113t23.5 113t15.5 75.5h-160l17 70h159q2 18 13.5 69.5t25 107.5t24.5 106.5t15 68.5h76l-78 -352 h334l78 352h78l-78 -352h155l-14 -70h-156zM334 483h334q4 20 16 73.5t24.5 113t23.5 113t16 75.5h-332z" />
<glyph unicode="$" d="M569 1493h64v-129q61 -4 127.5 -21.5t122.5 -52.5l-33 -84q-72 35 -121 47.5t-96 16.5v-537q63 -27 124.5 -55.5t109.5 -68.5t77 -97t29 -139t-25.5 -143.5t-72 -105.5t-108.5 -70.5t-134 -39.5v-170h-64v1649zM498 -156h-62v164q-82 8 -162.5 33t-146.5 63l41 89 q92 -49 154.5 -65.5t113.5 -23.5v586q-61 23 -115.5 49.5t-94.5 65.5t-62.5 90t-22.5 123t22.5 129t62.5 100t93.5 71t116.5 40v135h62v-1649zM870 379q0 49 -18 88t-50 68.5t-76 52t-93 41.5v-520q113 18 175 82.5t62 187.5zM244 1028q0 -53 14 -90t40 -63.5t61.5 -45 t76.5 -34.5v467q-80 -23 -136 -78.5t-56 -155.5z" />
<glyph unicode="%" horiz-adv-x="1638" d="M698 946q0 -72 -14 -144.5t-51 -131t-97.5 -95t-152.5 -36.5q-104 0 -167.5 35.5t-98.5 93t-46.5 130t-11.5 146.5q0 68 12.5 142.5t47.5 137t99.5 103.5t168.5 41q106 0 167.5 -43t93.5 -106.5t41 -137.5t9 -135zM600 944q0 45 -5 104.5t-26.5 112.5t-63.5 90t-118 37 q-78 0 -123 -34.5t-67.5 -87t-29.5 -113t-7 -111.5q0 -68 8 -127t32.5 -104t68.5 -71t118 -26q66 0 107 30t64.5 78t32.5 106.5t9 115.5zM567 -47h-86l588 1479h82zM1577 401q0 -72 -14.5 -144.5t-51 -131.5t-97 -96t-152.5 -37q-104 0 -168 35.5t-98.5 93t-46 131.5 t-11.5 147q0 68 12.5 142.5t47 137t99 103.5t169.5 41q106 0 167.5 -43t93.5 -106.5t41 -137.5t9 -135zM1479 399q0 45 -5.5 105.5t-27 113t-63.5 89t-117 36.5q-78 0 -123 -34.5t-67.5 -87t-30 -112.5t-7.5 -112q0 -68 8.5 -127t33 -104t68.5 -70.5t118 -25.5 q66 0 106.5 29.5t64 77.5t33 106.5t9.5 115.5z" />
<glyph unicode="&#x26;" horiz-adv-x="1445" d="M571 1382q70 0 122 -21.5t87 -56t51.5 -81.5t16.5 -99q0 -104 -77 -187t-218 -161q90 -129 191.5 -262t218.5 -250q49 45 91 99.5t74.5 122t54 149.5t29.5 186h97q-14 -219 -90 -366.5t-189 -253.5q72 -72 156 -129.5t157 -87.5q-10 -23 -22 -42.5t-25 -39.5 q-33 14 -75.5 39.5t-90 56.5t-94.5 67.5t-86 73.5q-104 -78 -223 -117.5t-235 -39.5q-90 0 -169 23.5t-137.5 70.5t-92.5 119.5t-34 171.5q0 141 92.5 247.5t258.5 198.5q-61 84 -88 156.5t-27 128.5q0 57 18.5 109.5t53 91t86.5 61t118 22.5zM166 371q0 -78 25.5 -135.5 t69.5 -95.5t102.5 -56t123.5 -18q96 0 193.5 31.5t204.5 105.5q-53 55 -100.5 111.5t-92.5 109.5q-61 78 -120.5 155.5t-110.5 153.5q-63 -35 -117.5 -72.5t-93.5 -81.5t-61.5 -95.5t-22.5 -112.5zM565 1294q-47 0 -77.5 -19.5t-50 -47t-28 -60t-8.5 -59.5q0 -57 27 -118.5 t78 -133.5q98 49 170 116.5t72 151.5q0 76 -48.5 123t-134.5 47z" />
<glyph unicode="'" horiz-adv-x="339" d="M139 1010l-24 391h112l-24 -391h-64z" />
<glyph unicode="(" horiz-adv-x="555" d="M121 586q0 172 34.5 316.5t82 255t97.5 187t79 115.5l47 -33q-23 -33 -61 -104.5t-74.5 -178t-64.5 -246.5t-28 -310q0 -193 28 -343.5t64.5 -263t75.5 -186.5t62 -112l-49 -35q-29 37 -78 114.5t-96 195.5t-83 274.5t-36 353.5z" />
<glyph unicode=")" horiz-adv-x="557" d="M424 586q0 -197 -36 -353.5t-83 -274.5t-97 -195.5t-77 -114.5l-49 35q23 39 61.5 112.5t75.5 186t64.5 263t27.5 343.5q0 170 -27.5 310t-64.5 246.5t-76 178.5t-59 104l49 33q29 -39 78 -115.5t96 -187t82 -255t35 -316.5z" />
<glyph unicode="*" horiz-adv-x="735" d="M399 1165q53 25 108.5 50.5t108.5 54.5q23 -29 31 -58.5t8 -64.5q-61 -8 -121.5 -17.5t-121.5 -19.5q43 -41 85 -85t85 -87q-39 -51 -101 -76q-29 53 -56.5 108.5t-55.5 108.5l-107 -215q-63 20 -104 74q41 45 84 88t84 86q-59 10 -119 19.5t-119 19.5q4 72 39 123 l217 -109q-8 59 -17.5 120t-19.5 120q33 6 68 6q16 0 31.5 -1t31.5 -5q-10 -59 -19.5 -120t-19.5 -120z" />
<glyph unicode="+" d="M596 565v-346h-92v346h-338v88h338v334h92v-334h336v-88h-336z" />
<glyph unicode="," horiz-adv-x="346" d="M82 72q0 35 24.5 60.5t61.5 25.5q43 0 68.5 -30t25.5 -77q0 -35 -11 -74.5t-31.5 -77.5t-50.5 -73t-65 -55l-30 36q35 41 53 89.5t20 95.5q-29 6 -47 27.5t-18 52.5z" />
<glyph unicode="-" horiz-adv-x="708" d="M106 477v103h496v-103h-496z" />
<glyph unicode="." horiz-adv-x="364" d="M264 74q0 -35 -25.5 -60.5t-60.5 -25.5t-60.5 25.5t-25.5 60.5t25.5 60.5t60.5 25.5t60.5 -25.5t25.5 -60.5z" />
<glyph unicode="/" horiz-adv-x="659" d="M109 -55h-86l528 1487h84z" />
<glyph unicode="0" d="M1028 672q0 -121 -22.5 -243t-78 -220t-147.5 -160.5t-229 -62.5q-158 0 -253 59t-148.5 155.5t-71 218.5t-17.5 247q0 113 18.5 237.5t72 230t149.5 175t252 69.5q160 0 254 -71.5t143 -179t63.5 -230.5t14.5 -225zM911 666q0 55 -3 121.5t-14 135t-33.5 133t-62.5 115 t-100.5 81t-144.5 30.5q-127 0 -202 -62.5t-112.5 -156.5t-49 -201.5t-11.5 -199.5q0 -121 14.5 -226.5t55.5 -184.5t114.5 -125t190.5 -46q109 0 178.5 53t109.5 137t55 189t15 207z" />
<glyph unicode="1" d="M522 1237l-313 -31v80l315 72h111v-1358h-113v1237z" />
<glyph unicode="2" d="M70 0v84l182 172q94 88 187 183.5t167 191.5t119 189t45 179q0 72 -22.5 123.5t-62.5 85t-93 49t-117 15.5q-68 0 -159 -22.5t-191 -88.5q-10 18 -21.5 37t-23.5 37q109 78 217.5 107.5t196.5 29.5q84 0 156.5 -21.5t125.5 -65.5t84 -111.5t31 -159.5q0 -88 -34 -175 t-90 -171t-127 -163t-144.5 -151.5t-143 -138t-123.5 -121.5q2 -2 2 -4q178 0 355.5 -1t355.5 -1v-88h-872z" />
<glyph unicode="3" d="M743 1260h-610v96h766l21 -76q-37 -39 -99.5 -101.5l-130 -130l-130 -130l-101.5 -101.5l4 -8h53q98 0 179 -23.5t139.5 -71.5t91 -121t32.5 -171q0 -111 -37.5 -193t-103 -136t-152.5 -81.5t-186 -27.5q-117 0 -215 16t-184 55l31 84q113 -35 198.5 -47t145.5 -12 q86 0 156.5 20.5t120.5 62.5t79 105.5t29 151.5q0 145 -104.5 220t-293.5 75q-35 0 -64.5 -2t-62.5 -6q-4 10 -13 36.5t-13 36.5l463 471z" />
<glyph unicode="4" d="M834 1356v-881h200v-90h-200q0 -98 1 -193.5t1 -191.5h-115q0 96 1 191.5t1 193.5h-672v92q166 221 331 438.5t331 440.5h121zM715 1206l-553 -731h563v731h-10z" />
<glyph unicode="5" d="M502 743q-59 0 -124 -14t-120 -43q-6 2 -16.5 9t-21.5 14.5t-21.5 14.5t-14.5 9q2 49 7.5 134t10.5 177.5t10 177.5t7 134h694v-96h-596q-4 -39 -7 -102.5t-7 -132.5t-8 -133.5t-6 -103.5q16 6 37.5 14.5t51.5 15.5t69.5 13.5t93.5 6.5q78 0 155.5 -22.5t139 -72 t100.5 -128t39 -191.5t-39 -196t-103.5 -138t-150.5 -81.5t-180 -26.5q-117 0 -216.5 17t-189.5 58l31 84q106 -35 189 -48t147 -13q180 0 286.5 83t106.5 261q0 80 -27.5 140.5t-75.5 100.5t-112.5 59t-138.5 19z" />
<glyph unicode="6" d="M625 1376q104 0 175.5 -20.5t114.5 -40.5l-30 -84q-78 29 -143.5 39t-114.5 10q-82 0 -142.5 -29.5t-105.5 -77t-74 -107.5t-47 -119.5t-26.5 -115t-10.5 -94.5l8 -6q72 43 164 74t205 31q80 0 152.5 -22.5t128 -73t88 -129.5t32.5 -191q0 -100 -31.5 -181t-90 -137.5 t-139.5 -86t-179 -29.5q-135 0 -223 50t-139.5 136t-71 201.5t-19.5 247.5q0 166 33 305t97.5 238.5t162 155.5t226.5 56zM887 412q0 74 -15.5 134t-52.5 103t-96 67.5t-145 24.5q-82 0 -146.5 -17t-110 -37.5t-71 -39t-27.5 -20.5v-52q0 -70 10.5 -156.5t45 -162.5 t102.5 -127t182 -51q78 0 138.5 24.5t101.5 69.5t62.5 105.5t21.5 134.5z" />
<glyph unicode="7" d="M137 1262v96h803v-92l-567 -1266h-113l569 1262h-692z" />
<glyph unicode="8" d="M272 1049q0 -59 32 -102.5t83 -77t116.5 -61.5t133.5 -56q117 80 162 152.5t45 137.5q0 39 -15.5 83t-50.5 79t-91 58.5t-136 23.5t-133 -25.5t-85 -62.5t-46.5 -77.5t-14.5 -71.5zM541 76q84 0 146.5 23.5t103 63.5t61 91t20.5 104q0 76 -32.5 128.5t-90 92t-136 73.5 t-173.5 73q-131 -82 -184 -184.5t-53 -198.5q0 -49 18.5 -97t59.5 -86t104.5 -60.5t155.5 -22.5zM954 1061q0 -80 -45 -171t-170 -181q109 -53 177.5 -139.5t68.5 -213.5q0 -74 -29.5 -141.5t-87 -118.5t-141.5 -80.5t-192 -29.5q-115 0 -199 27.5t-139.5 74.5t-83 108.5 t-27.5 131.5q0 57 14.5 118.5t47 119t83 109.5t121.5 93q-100 55 -149 119.5t-49 161.5q0 68 28.5 128t81.5 105t128 71.5t165 26.5q68 0 138.5 -17t128 -56t94 -99.5t36.5 -146.5z" />
<glyph unicode="9" d="M848 631q-72 -47 -164 -78t-203 -31q-80 0 -152.5 22.5t-128 73t-88 130t-32.5 192.5q0 100 31.5 181t89 138.5t139.5 87t180 29.5q135 0 223 -50t138.5 -137t71 -203t20.5 -245q0 -166 -33 -305t-97.5 -238.5t-162.5 -154.5t-227 -55q-104 0 -186.5 18.5t-125.5 40.5 l31 84q78 -31 153.5 -41t127.5 -10q80 0 140 29.5t105 78t74 107.5t47.5 119.5t26.5 116t10 94.5zM500 618q82 0 147.5 17.5t110.5 38t69.5 39t28.5 20.5v51q0 70 -10 156t-45 162t-102.5 127t-182.5 51q-158 0 -240.5 -92t-82.5 -238q0 -74 15 -134t51 -104t95.5 -69 t145.5 -25z" />
<glyph unicode=":" horiz-adv-x="360" d="M268 78q0 -35 -23.5 -61.5t-60.5 -26.5t-62.5 26.5t-25.5 61.5t25.5 59.5t60.5 24.5t60.5 -24.5t25.5 -59.5zM268 715q0 -37 -24.5 -62.5t-59.5 -25.5t-61.5 26.5t-26.5 61.5t25.5 59.5t60.5 24.5t60.5 -24.5t25.5 -59.5z" />
<glyph unicode=";" horiz-adv-x="360" d="M268 715q0 -37 -24.5 -62.5t-59.5 -25.5t-61.5 26.5t-26.5 61.5t25.5 59.5t60.5 24.5t60.5 -24.5t25.5 -59.5zM92 72q0 35 24.5 60.5t63.5 25.5q41 0 67.5 -30t26.5 -77q0 -35 -11 -73.5t-32.5 -77.5t-51 -73t-64.5 -56l-31 39q35 41 53.5 88t20.5 94q-29 6 -47.5 27.5 t-18.5 52.5z" />
<glyph unicode="&#x3c;" d="M938 166l-776 399v84l776 398v-105l-674 -334l674 -338v-104z" />
<glyph unicode="=" d="M152 717v90h784v-90h-784zM152 426v88h784v-88h-784z" />
<glyph unicode="&#x3e;" d="M162 270l674 338l-674 334v105l776 -398v-84l-776 -399v104z" />
<glyph unicode="?" horiz-adv-x="868" d="M813 1163q0 -70 -34 -129t-84 -113.5t-109.5 -104.5t-109.5 -100t-84 -102.5t-34 -109.5q0 -35 5.5 -71t13.5 -81l-101 -18q-14 59 -19 106t-5 78q0 70 32.5 128.5t81 110.5t105.5 100t105.5 96t81 98.5t32.5 107.5q0 98 -71.5 139t-180.5 41q-61 0 -140 -10t-183 -45 l-29 92q94 33 187.5 47.5t166.5 14.5q186 0 279.5 -73t93.5 -202zM453 68q0 -39 -26 -61.5t-60 -22.5q-35 0 -61.5 23.5t-26.5 60.5q0 35 25.5 59.5t60.5 24.5q37 0 62.5 -24.5t25.5 -59.5z" />
<glyph unicode="@" horiz-adv-x="1769" d="M926 1403q164 0 294 -46t221 -132t139 -208t48 -272q0 -106 -30.5 -184t-79 -129t-107.5 -76.5t-117 -25.5q-63 0 -125.5 24.5t-91.5 91.5q-47 -45 -121.5 -79.5t-160.5 -34.5q-66 0 -107 21.5t-63.5 54t-31.5 70.5t-9 71q0 104 69.5 156.5t180.5 62.5l225 16v66 q0 104 -36 144t-132 40q-113 0 -236 -45q-4 12 -10 32.5t-10 35.5q59 29 133 44t145 15q111 0 172.5 -54t61.5 -183v-332q0 -68 39 -104.5t114 -36.5q43 0 87.5 18t80 59t58 105.5t22.5 154.5q0 141 -45 251t-126 184.5t-195.5 114.5t-255.5 40t-268.5 -49t-222.5 -137 t-150.5 -207t-55.5 -256q0 -141 49.5 -260t135.5 -205t202.5 -135t251.5 -49q57 0 114.5 8t129.5 31l21 -68q-51 -18 -120 -31.5t-139 -13.5q-160 0 -291.5 54.5t-228 149.5t-149.5 227t-53 288q0 158 61 290t167.5 228t247 150.5t298.5 54.5zM844 702q-72 -4 -119 -42.5 t-47 -104.5t36 -107.5t113 -41.5q53 0 113.5 24.5t118.5 75.5v215z" />
<glyph unicode="A" horiz-adv-x="1128" d="M971 0l-123 383h-576q-31 -98 -59.5 -192.5t-58.5 -190.5h-125l456 1399h156q117 -352 228.5 -700.5t226.5 -698.5h-125zM819 477q-47 150 -93 297.5t-93 294.5q-6 23 -15.5 52.5t-18.5 60t-18.5 60.5t-15.5 52h-6l-70 -225l-184 -592h514z" />
<glyph unicode="B" horiz-adv-x="1196" d="M846 723q68 -25 111.5 -66t69.5 -90t36 -100t10 -94q0 -86 -29.5 -154.5t-82 -117t-121 -75t-146.5 -26.5h-530v1397h465q203 0 302 -98.5t99 -251.5q0 -29 -7 -68t-27.5 -82t-56.5 -85t-93 -75v-14zM283 678v-584h370q80 0 137.5 23.5t93.5 64.5t52 93.5t16 111.5 q0 57 -20.5 109.5t-59 92.5t-95 64.5t-126.5 24.5h-368zM283 774h333q135 0 214 70.5t79 189.5q0 57 -17.5 106.5t-54 85.5t-94 56.5t-137.5 20.5h-323v-529z" />
<glyph unicode="C" horiz-adv-x="1165" d="M709 1421q111 0 199.5 -16t148.5 -39l-29 -92q-80 27 -160 38t-149 11q-123 0 -211 -45t-146.5 -128t-86 -199.5t-27.5 -262.5q0 -121 18.5 -229.5t69.5 -192.5t143 -133t240 -49q27 0 68.5 3t88 8t94.5 14.5t89 21.5l24 -86q-35 -14 -82 -25.5t-99 -18.5t-105.5 -11 t-98.5 -4q-160 0 -269.5 50t-177 142t-98 222t-30.5 290q0 113 24.5 241t90 237.5t179.5 181t292 71.5z" />
<glyph unicode="D" horiz-adv-x="1275" d="M164 0v1401h430q166 0 273.5 -56.5t171 -152.5t89 -222t25.5 -268q0 -143 -27.5 -271t-94 -223t-178.5 -151.5t-280 -56.5h-409zM287 1305v-1207h270q31 0 78 3t99 20.5t104.5 53.5t94.5 101.5t68.5 166t26.5 245.5q0 150 -24.5 253t-63.5 172t-88 106.5t-100.5 57 t-98.5 24t-82 4.5h-284z" />
<glyph unicode="E" horiz-adv-x="1087" d="M164 0v1399h805v-94h-684v-517h585v-94h-585v-598h719v-96h-840z" />
<glyph unicode="F" horiz-adv-x="1030" d="M164 0v1399h801v-96h-680v-521h577v-96h-577v-686h-121z" />
<glyph unicode="G" horiz-adv-x="1247" d="M737 1421q111 0 203 -16t152 -39l-25 -90q-86 25 -168 36t-154 11q-127 0 -221 -45t-155.5 -128t-91 -202t-29.5 -264q0 -117 18.5 -225.5t69.5 -191.5t142 -132t237 -49q29 0 64.5 3t73.5 7t74 11.5t62 17.5v584h115v-664q-98 -33 -201.5 -46t-202.5 -13q-158 0 -268 50 t-179 143t-99.5 223t-30.5 290q0 74 11 158t39 165t73 154.5t113.5 130t161.5 89t216 32.5z" />
<glyph unicode="H" horiz-adv-x="1282" d="M993 0v688h-706v-85v-119.5t1 -138.5t1 -138.5v-120.5v-86h-125v1399h125v-126t-1 -178.5t-1 -178.5v-125h706v608h125v-1399h-125z" />
<glyph unicode="I" horiz-adv-x="487" d="M184 0v1401h119v-1401h-119z" />
<glyph unicode="J" horiz-adv-x="579" d="M256 1401h119v-1159q0 -125 -28 -219.5t-82 -167t-134 -126t-182 -96.5l-37 88q92 53 157.5 104.5t107.5 110t60.5 131t18.5 169.5v1165z" />
<glyph unicode="K" horiz-adv-x="1126" d="M285 0h-121v1401h121v-676l655 676h143l-548 -561l563 -840h-137l-506 756l-170 -172v-584z" />
<glyph unicode="L" horiz-adv-x="1087" d="M186 0v1399h123v-1305h748v-94h-871z" />
<glyph unicode="M" horiz-adv-x="1626" d="M299 1397q111 -242 217.5 -485.5t216.5 -487.5l74 -170h10q20 43 38.5 86t37.5 86q109 242 218.5 485.5t219.5 485.5h129v-1397h-117q0 293 -1 583.5t-1 583.5h-4l-94 -213q-49 -109 -100 -220t-99.5 -218.5t-93.5 -207t-82 -181.5h-116q-14 31 -28.5 63.5t-33 74.5 t-43 94.5t-57.5 123.5q-41 98 -94.5 214t-120.5 264l-90 208h-6v-1169h-115v1397h135v0z" />
<glyph unicode="N" horiz-adv-x="1347" d="M1065 205v1194h119l-2 -1399h-117q-27 39 -75 113.5t-107.5 167t-124 193.5t-124 193.5t-108.5 167t-73 113.5l-164 264q-2 0 -4 -1t-4 -1v-1210h-117v1399h123q25 -37 73 -111t107 -166t124.5 -193.5t124 -193.5t105.5 -165.5t72 -110.5l164 -254h8z" />
<glyph unicode="O" horiz-adv-x="1384" d="M1262 694q0 -152 -35 -280.5t-105.5 -224t-175 -149.5t-241.5 -54q-160 0 -270.5 49t-179.5 139t-100.5 220t-31.5 294q0 143 29.5 276.5t97 234.5t179.5 161.5t276 60.5q166 0 273 -60.5t170.5 -161.5t88.5 -232.5t25 -272.5zM1135 688q0 106 -15.5 220t-61.5 207 t-131 152.5t-222 59.5q-139 0 -227.5 -55t-139.5 -145.5t-70.5 -206t-19.5 -236.5q0 -295 106.5 -449.5t343.5 -154.5q113 0 195 48t135 130t80 192.5t27 237.5z" />
<glyph unicode="P" horiz-adv-x="1075" d="M1016 1004q0 -61 -18.5 -134t-63.5 -134.5t-123 -102.5t-197 -41h-329l2 -592h-123v1401h432q88 0 165 -24.5t134 -74t89 -124t32 -174.5zM285 1305v-619h315q53 0 105.5 14.5t93.5 50t66.5 96t25.5 150.5q0 78 -23.5 136.5t-63.5 96.5t-94.5 56.5t-115.5 18.5h-309z" />
<glyph unicode="Q" horiz-adv-x="1384" d="M1262 692q0 -119 -22.5 -225.5t-66 -192.5t-109 -149.5t-151.5 -97.5q23 -6 70 -18.5t99.5 -26t98.5 -24.5t68 -17l-41 -113q-33 10 -95 30.5t-132 43t-132.5 43t-92.5 32.5q-10 2 -25.5 2.5t-25.5 2.5q-160 6 -270.5 55t-179.5 138t-100.5 218t-31.5 295 q0 143 29.5 276.5t97 234.5t179.5 161.5t276 60.5q166 0 273 -61.5t169.5 -162.5t88.5 -232.5t26 -272.5zM1135 688q0 106 -15.5 219t-61.5 206t-131 152.5t-222 59.5q-139 0 -227.5 -55.5t-139.5 -145.5t-70.5 -205.5t-19.5 -234.5q0 -297 105.5 -451.5t342.5 -154.5 q113 0 196 48t136 131t80 193.5t27 237.5z" />
<glyph unicode="R" horiz-adv-x="1153" d="M1018 1024q0 -59 -14.5 -117.5t-45 -107.5t-79 -86t-113.5 -54q84 -27 124 -91t64 -150l121 -418h-123l-114 401q-23 68 -50.5 112t-63.5 69.5t-79 36t-94 10.5h-266v-629h-121v1401h440q106 0 185 -29t129.5 -79t75 -119.5t24.5 -149.5zM598 725q59 0 112.5 15.5 t94.5 50t64.5 91t23.5 136.5q0 147 -85 216t-216 69h-307v-578h313z" />
<glyph unicode="S" horiz-adv-x="1120" d="M567 1423q78 0 176.5 -14t190.5 -59l-39 -93q-104 41 -184 53.5t-152 12.5q-135 0 -224 -69.5t-89 -213.5q0 -63 29.5 -106t76.5 -71.5t108.5 -48t127.5 -36.5q76 -20 154.5 -44.5t142 -67.5t103.5 -112t40 -177q0 -104 -38 -178t-104.5 -122t-157.5 -69.5t-196 -21.5 q-111 0 -226.5 23.5t-211.5 78.5l41 90q119 -57 214 -75.5t179 -18.5q180 0 277.5 65.5t97.5 227.5q0 70 -24.5 117t-68.5 78.5t-104.5 53t-132.5 40.5q-90 25 -172 51t-144 67t-99 101.5t-37 152.5t32.5 164t92 121t141.5 74.5t180 25.5z" />
<glyph unicode="T" horiz-adv-x="1097" d="M489 0v1303h-450v98h1018v-98h-447l-2 -1303h-119z" />
<glyph unicode="U" horiz-adv-x="1339" d="M1186 498q0 -115 -32 -209t-96.5 -162t-161.5 -104.5t-228 -36.5q-270 0 -391 136t-121 376v903h116l2 -901q0 -209 100.5 -314.5t295.5 -105.5q193 0 294 104.5t101 315.5v901h121v-903z" />
<glyph unicode="V" horiz-adv-x="1081" d="M547 125l82 278l299 998h125l-439 -1401h-147l-438 1401h129l301 -1002l80 -274h8z" />
<glyph unicode="W" horiz-adv-x="1652" d="M799 1217q-20 -98 -43 -191.5t-43 -191.5q-31 -129 -79 -337t-114 -497h-151l-340 1397h123q14 -63 36.5 -160.5t49 -214.5t56.5 -242t58 -243l90 -396h9q23 96 44 191.5t44 193.5q53 227 102 437.5t100 433.5h127q20 -78 52 -196t66 -242.5t64.5 -240.5t51.5 -188 q4 -12 19.5 -67t31.5 -119.5t31.5 -123t21.5 -79.5h11l88 391l198 865h119q-88 -367 -173 -716t-167 -681h-145q-57 217 -113.5 423t-116.5 429q-23 92 -46 182t-50 183h-12z" />
<glyph unicode="X" horiz-adv-x="1081" d="M467 725q-102 168 -204.5 336t-207.5 338h135q88 -150 175.5 -296.5t177.5 -293.5l354 590h133q-104 -172 -209.5 -340t-210.5 -338l443 -721h-135l-381 635l-379 -635h-131q111 182 220 362.5t220 362.5z" />
<glyph unicode="Y" horiz-adv-x="1024" d="M442 623l-417 778h129l219 -416l129 -256h8l133 254l227 418h127l-428 -770v-631h-127v623z" />
<glyph unicode="Z" horiz-adv-x="1028" d="M88 1401h866v-98l-770 -1203h805v-100h-950v98l770 1202h-721v101z" />
<glyph unicode="[" horiz-adv-x="499" d="M119 -328v1753h307v-86h-197v-1579h197v-88h-307z" />
<glyph unicode="\" horiz-adv-x="659" d="M23 1432h83l529 -1487h-86z" />
<glyph unicode="]" horiz-adv-x="499" d="M76 -328v88h196v1579h-196v86h305v-1753h-305z" />
<glyph unicode="^" horiz-adv-x="880" d="M727 801l-289 502l-286 -502h-101q25 43 74 125t101.5 173t100.5 173t72 125h84l340 -596h-96z" />
<glyph unicode="_" horiz-adv-x="1024" d="M0 -254v74h1024v-74h-1024z" />
<glyph unicode="`" horiz-adv-x="978" d="M272 1391l93 84l231 -314l-57 -49z" />
<glyph unicode="a" horiz-adv-x="1036" d="M516 1010q152 0 235 -74t83 -252v-594h135q4 -16 4 -33.5t2 -33.5q-35 -16 -76 -24.5t-74 -8.5q-57 0 -82.5 27.5t-21.5 95.5l-4 2q-59 -47 -111.5 -73t-96.5 -38t-79 -14t-59 -2q-84 0 -140.5 25.5t-89 65.5t-46 89t-13.5 94q0 137 91 210t235 83l313 16v82 q0 139 -47 199.5t-182 60.5q-76 0 -156 -16t-156 -43l-28 80q86 37 182 56.5t182 19.5zM436 473q-117 -4 -174 -57.5t-57 -141.5q0 -100 50 -149t159 -49q72 0 148.5 37t158.5 104v272z" />
<glyph unicode="b" horiz-adv-x="1017" d="M238 924q98 51 173.5 71.5t141.5 20.5q106 0 176 -40t112 -109.5t59.5 -166t17.5 -208.5q0 -104 -20.5 -196.5t-69 -160t-126 -107.5t-194.5 -40q-104 0 -202.5 21.5t-184.5 60.5v1384h115v-326q0 -10 -1.5 -38.5t-1.5 -60.5t-1 -61.5t-1 -39.5zM537 920q-78 0 -159 -31 t-142 -66v-690q72 -31 139 -42t125 -11q70 0 126 21.5t95 69.5t59.5 126t20.5 190q0 127 -19.5 210t-54.5 132.5t-83 70t-107 20.5z" />
<glyph unicode="c" horiz-adv-x="911" d="M219 492q0 -86 14.5 -161t50 -130.5t95 -88t149.5 -32.5q82 0 149.5 17.5t147.5 49.5l31 -79q-61 -35 -148 -58.5t-186 -23.5q-117 0 -197.5 37.5t-131 103.5t-72 157t-21.5 199q0 51 7.5 110.5t25 119t49 115t79.5 97.5t115.5 66.5t160.5 24.5q70 0 141.5 -11.5 t138.5 -39.5l-31 -86q-74 27 -134 34t-107 7q-164 0 -245 -117.5t-81 -310.5z" />
<glyph unicode="d" horiz-adv-x="1019" d="M784 102q-2 0 -2 1t-2 1q-66 -53 -149.5 -84.5t-167.5 -31.5q-102 0 -172 39t-112 104.5t-60.5 154.5t-18.5 191q0 113 21.5 211t68 171t121 114t181.5 41q59 0 138 -16.5t152 -61.5v516h115v-1452h-113v102zM782 838q-45 29 -122.5 54.5t-153.5 25.5q-59 0 -111.5 -22 t-91.5 -74t-61.5 -137t-22.5 -210q0 -113 19.5 -188.5t55.5 -121.5t87 -65.5t113 -19.5q33 0 73.5 10t80.5 26.5t75 39t59 45.5v637z" />
<glyph unicode="e" horiz-adv-x="995" d="M520 928q-80 0 -135 -31t-89 -82t-51.5 -117.5t-23.5 -138.5h570q0 80 -13.5 147.5t-44.5 116.5t-83 77t-130 28zM518 1014q96 0 163 -28t110 -72t65.5 -99t32.5 -107.5t11 -98.5t1 -72v-60h-682q0 -80 13.5 -151.5t48 -127t94 -88t151.5 -32.5q90 0 161 18.5t157 57.5 l30 -78q-86 -47 -169.5 -68.5t-182.5 -21.5q-127 0 -209 41t-129 109.5t-65.5 160.5t-18.5 197q0 41 5.5 96t21.5 112.5t45 113.5t75 100.5t112.5 71t158.5 26.5z" />
<glyph unicode="f" horiz-adv-x="690" d="M217 909h-141v66l141 29v176q0 147 78 220t223 73q39 0 86 -5.5t94 -15.5l-14 -86q-35 6 -74 10t-69 4q-106 0 -158.5 -44t-52.5 -152v-185h297v-90h-297l-2 -909h-111v909z" />
<glyph unicode="g" horiz-adv-x="1069" d="M274 399q-57 29 -100 95.5t-43 173.5q0 94 34 160.5t87 107.5t119.5 60.5t134.5 19.5q47 0 93 -4t89 -19h307v-82h-172l-4 -6q47 -41 68.5 -101.5t21.5 -129.5q0 -80 -29.5 -142.5t-83 -106.5t-127 -66.5t-163.5 -22.5h-117q-78 0 -129 -15.5t-51 -70.5q0 -39 31.5 -59.5 t89.5 -20.5h274q184 0 272.5 -77t88.5 -214q0 -76 -34 -136t-95.5 -101t-146.5 -63.5t-187 -22.5q-121 0 -201 24.5t-126 64.5t-64.5 92t-18.5 109q0 86 41 154t90 96q-125 18 -125 137q0 45 16.5 74t42 47.5t56.5 26.5t59 12zM342 82q-29 -12 -54.5 -34.5t-44 -52.5 t-28.5 -62.5t-10 -63.5q0 -43 13 -84t48 -72.5t96.5 -50t157.5 -18.5q147 0 238.5 62.5t91.5 170.5q0 35 -9.5 71t-38 65.5t-79.5 49t-137 19.5h-244zM795 674q0 43 -13.5 88t-46.5 82t-85 60.5t-132 23.5q-133 0 -202.5 -68.5t-69.5 -187.5q0 -113 68.5 -181.5t179.5 -68.5 q135 0 218 62.5t83 189.5z" />
<glyph unicode="h" horiz-adv-x="1003" d="M242 901q98 53 196.5 84t167.5 31q100 0 155.5 -30t82 -75t33 -99t6.5 -105v-707h-115v672q0 55 -5 101t-25.5 78t-58.5 49.5t-104 17.5q-41 0 -85 -9.5t-89 -25t-87 -35t-78 -39.5v-809h-115v1454h112v-305v-50t-1 -71t-2 -71.5t-1 -49.5z" />
<glyph unicode="i" horiz-adv-x="460" d="M172 0v997h115v-997h-115zM313 1253q0 -33 -24.5 -57.5t-59.5 -24.5t-58.5 25t-23.5 57q0 35 24 60.5t58 25.5q35 0 59.5 -25.5t24.5 -60.5z" />
<glyph unicode="j" horiz-adv-x="479" d="M186 997h115v-1001q-2 -86 -17.5 -151.5t-52 -117t-96 -92.5t-151.5 -77l-35 80q74 41 120 77.5t72.5 77.5t36.5 89t10 112zM164 1253q0 35 23.5 60.5t58.5 25.5t59.5 -25.5t24.5 -60.5q0 -33 -24.5 -57.5t-59.5 -24.5t-58.5 24.5t-23.5 57.5z" />
<glyph unicode="k" horiz-adv-x="878" d="M229 543q2 0 11 -4l120 123l338 333h133l-391 -389q16 -20 31.5 -39.5t32.5 -42.5q27 -41 75 -112.5t101 -149.5t101 -150.5t77 -111.5h-129q-92 135 -181 268t-181 269q-33 -35 -67 -67t-67 -67v-403h-114v1450h114v-657l-4 -250v0z" />
<glyph unicode="l" horiz-adv-x="419" d="M266 0h-114v1454h114v-1454z" />
<glyph unicode="m" horiz-adv-x="1613" d="M1376 0v670q0 57 -6 102t-26.5 78t-59.5 50.5t-104 17.5q-37 0 -81 -9.5t-87 -25t-84 -34t-74 -38.5q4 -29 6 -59.5t2 -55.5v-696h-114v688q0 109 -38 168t-147 59q-80 0 -168 -32.5t-159 -75.5v-807h-115v997h110v-19t1 -27.5t1 -28v-19.5q2 0 4.5 -2t4.5 -2 q92 55 183 85t167 30q96 0 153.5 -33t88.5 -92q98 59 195 92t175 33q100 0 157.5 -29t86.5 -73t36 -97t7 -102v-713h-115z" />
<glyph unicode="n" horiz-adv-x="1003" d="M768 0v670q0 57 -7 102t-27.5 78t-58.5 50.5t-100 17.5q-39 0 -84 -9.5t-89 -25t-87 -35t-79 -39.5v-809h-115v997h112v-18t1.5 -26.5t1.5 -28v-19.5q0 -2 2 -2t2 -1t2 -1q90 55 190 85t172 30q98 0 153.5 -26.5t83 -69.5t35 -96.5t7.5 -104.5v-719h-115z" />
<glyph unicode="o" horiz-adv-x="1034" d="M936 494q0 -92 -19.5 -183.5t-67.5 -164t-130 -116.5t-207 -44q-121 0 -200 42t-126 111.5t-66.5 160.5t-19.5 189t22.5 192.5t73 168.5t132.5 119t198 45q121 0 200 -45t126 -119t65.5 -167t18.5 -189zM817 489q0 72 -11 149t-42 139.5t-88.5 103.5t-149.5 41 t-151.5 -39t-94 -100.5t-48 -139.5t-13.5 -156q0 -80 11.5 -153.5t45 -130t93 -91t157.5 -34.5q90 0 147.5 37t89.5 96t43 132.5t11 145.5z" />
<glyph unicode="p" horiz-adv-x="1017" d="M240 893q66 53 147.5 85t165.5 32q102 0 172 -39t112 -105.5t60 -157t18 -192.5q0 -111 -20.5 -208t-67.5 -168.5t-121.5 -112.5t-181.5 -41q-59 0 -138 14t-153 61v-491h-112v1427h106q0 -6 1 -20t1 -29.5t1 -29t1 -19.5zM233 158q45 -31 123 -56.5t154 -25.5 q59 0 112.5 22.5t92.5 74.5t61.5 137t22.5 210q0 113 -19.5 187.5t-56.5 120.5t-88 65.5t-113 19.5q-35 0 -74.5 -10t-79.5 -27.5t-75 -39t-60 -43.5v-635z" />
<glyph unicode="q" horiz-adv-x="1019" d="M774 72q-96 -51 -167.5 -70.5t-135.5 -19.5q-106 0 -177 36.5t-114 103t-60.5 159t-17.5 200.5q0 109 20.5 205t69 169t127 115t197.5 42q109 0 204 -22.5t177 -59.5v-1360h-113v264v115.5t2 113.5zM481 76q80 0 160 29.5t141 64.5v698q-70 29 -134 40.5t-124 11.5 q-139 0 -222 -97.5t-85 -318.5q0 -125 18.5 -207t53.5 -131t84 -69.5t108 -20.5z" />
<glyph unicode="r" horiz-adv-x="643" d="M262 862q33 27 76 55.5t88 51t88 37t76 14.5q16 0 28.5 -8t12.5 -31q0 -18 -11.5 -54t-27.5 -59q-25 -2 -70 -11t-96 -19.5t-96 -20.5t-70 -12v-805h-117v997h115q0 -6 -1 -25.5t-2 -40t-2 -40t-1 -25.5z" />
<glyph unicode="s" horiz-adv-x="876" d="M125 143q88 -43 164 -55t131 -12t102 10t82 32.5t55.5 58.5t20.5 85q0 45 -20.5 76t-53.5 54.5t-76 40t-88 32.5q-63 20 -121.5 42.5t-104.5 54.5t-73.5 76t-27.5 110q0 70 27.5 121t73.5 82.5t107.5 47t129.5 15.5q53 0 133 -13.5t145 -48.5q-6 -16 -16 -42.5t-19 -41.5 q-74 29 -134 40.5t-111 11.5q-92 0 -159 -40t-67 -135q0 -39 22.5 -67.5t57.5 -50t75 -37t75 -25.5q61 -20 121.5 -41.5t108.5 -54.5t77 -82t29 -123t-29 -126t-80 -86t-118.5 -50t-143.5 -16q-88 0 -178 18.5t-156 56.5z" />
<glyph unicode="t" horiz-adv-x="681" d="M311 1221v-224h295v-88h-297v-657q0 -74 29 -120t121 -46q70 0 190 35l19 -78q-51 -23 -111.5 -37t-120.5 -14q-111 0 -175 51t-64 174v692h-144v64l148 35l37 200z" />
<glyph unicode="u" horiz-adv-x="985" d="M399 -20q-102 0 -158.5 28.5t-83 73.5t-31.5 99.5t-5 105.5v710h115v-675q0 -57 5 -103.5t24.5 -78t57 -49t103.5 -17.5q63 0 153.5 35.5t172.5 107.5l-2 780q23 0 57.5 1t56.5 1v-999h-112v121l-7 4q-55 -47 -106 -76t-97 -44t-82 -20t-61 -5z" />
<glyph unicode="v" horiz-adv-x="866" d="M358 0q-82 244 -163.5 490.5t-169.5 504.5h116q47 -150 98.5 -300t98.5 -308q23 -72 45.5 -146.5t44.5 -144.5h10q12 39 38 125t56 180q27 82 53.5 165t52.5 160t48.5 146.5t38.5 122.5h119q-90 -258 -175 -505.5t-171 -489.5h-140v0z" />
<glyph unicode="w" horiz-adv-x="1404" d="M1030 113l72 286l162 598h116l-286 -997h-131l-181 563l-88 301h-8l-78 -289l-168 -575h-133l-282 997h114l158 -575l78 -309h8l88 325l162 559h115l190 -604l82 -280h10z" />
<glyph unicode="x" horiz-adv-x="831" d="M414 451q-70 -115 -137.5 -226.5t-139.5 -224.5h-123q84 131 165 262t167 262q-74 119 -148.5 237t-150.5 236h129l238 -395q61 98 119.5 197.5t119.5 197.5h127q-76 -119 -151.5 -235.5t-149.5 -233.5q86 -133 169 -264t169 -264h-131z" />
<glyph unicode="y" horiz-adv-x="888" d="M444 76q6 16 30 96t56 182q25 76 52.5 162t54.5 172t52.5 166t45.5 143h117q-18 -53 -49 -148t-69 -212t-79 -244t-79.5 -242.5t-69.5 -211t-49 -148.5q-35 -109 -91.5 -172t-160.5 -63q-29 2 -79 5t-128 25l18 86q59 -12 94 -17t70 -5q29 0 52.5 4t45 19.5t39 45 t33.5 78.5l68 207h-60q-14 47 -39.5 126t-56.5 174t-65.5 197.5t-65.5 198t-57.5 173t-40.5 124.5h112q8 -27 24.5 -78t36 -113.5t42 -131t42 -131t36 -113.5t24.5 -80l86 -274h8v0z" />
<glyph unicode="z" horiz-adv-x="823" d="M180 88l608 2v-90h-759v80l596 819l-7 8h-534v90h684v-86l-592 -813z" />
<glyph unicode="{" horiz-adv-x="505" d="M362 -338q-53 0 -84.5 20.5t-49 52.5t-22.5 68.5t-5 69.5v473q0 33 -4 69t-18.5 67.5t-42 56t-75.5 34.5v70q43 8 70 29.5t42 53.5t21.5 70t6.5 76v299q0 39 4 84t20.5 85t48 67t84.5 27h97v-88h-47q-53 0 -76 -35t-23 -97v-348q0 -41 -5 -81t-17.5 -74.5t-35 -61 t-58.5 -39.5q41 -23 64.5 -50.5t34.5 -63t14 -79.5t3 -100v-440q0 -53 15.5 -91t74.5 -38h56v-86h-93z" />
<glyph unicode="|" horiz-adv-x="454" d="M178 -281v1711h90v-1711h-90z" />
<glyph unicode="}" horiz-adv-x="505" d="M57 -338v86h56q59 0 73.5 38t14.5 91v440q0 55 3 99.5t14 80t34.5 63.5t66.5 50q-37 12 -60 39t-35.5 61.5t-17.5 74.5t-5 81v348q0 61 -22.5 96.5t-76.5 35.5h-45v88h95q53 0 84.5 -27t48 -67t20.5 -85t4 -84v-299q0 -39 6.5 -76.5t21.5 -69.5t42 -53.5t70 -29.5v-70 q-47 -10 -75 -34.5t-42.5 -56t-18.5 -67.5t-4 -69v-473q0 -33 -5 -69.5t-22.5 -68.5t-49 -52.5t-85.5 -20.5h-90z" />
<glyph unicode="~" d="M782 508q-57 0 -119.5 13.5t-124 29.5t-119 29.5t-100.5 13.5l-122 -90l-52 39q35 72 80 109.5t107 37.5q47 0 110.5 -13t129 -29.5t126 -30t99.5 -13.5l116 88l50 -37q-31 -72 -75.5 -109.5t-105.5 -37.5z" />
<glyph unicode="&#xa1;" horiz-adv-x="423" d="M256 653q2 -47 4 -122.5t4 -157.5t4 -159t2 -122v-46t1 -95t1 -118.5t1 -119t1 -95.5v-46h-114l6 584l16 497h74zM305 924q0 -35 -25.5 -60.5t-62.5 -25.5q-35 0 -61.5 25.5t-26.5 60.5q0 37 26.5 63.5t63.5 26.5q35 0 60.5 -26.5t25.5 -63.5z" />
<glyph unicode="&#xa2;" d="M551 -12q-106 6 -180 46t-119 105.5t-64.5 153.5t-19.5 190q0 74 15.5 161t56.5 166t115.5 135t195.5 69v166h72v-164q66 -2 132 -13.5t130 -37.5l-31 -86q-70 25 -127 33t-104 8v-840q72 2 134 19.5t136 47.5l31 -79q-57 -31 -135 -53.5t-166 -26.5v-166h-72v166z M287 492q0 -80 12 -152t43 -126t81 -89t128 -43v831q-135 -23 -199.5 -135t-64.5 -286z" />
<glyph unicode="&#xa3;" d="M287 733q0 12 2 46t4 73t3 72.5t1 46.5q4 82 25.5 154.5t66.5 127t114.5 86t172.5 31.5q86 0 174 -16.5t145 -42.5l-34 -90q-84 33 -152 42t-127 9q-82 0 -133 -22.5t-82 -64.5t-43 -98.5t-16 -123.5l-11 -230h400v-82h-406q0 -10 -1 -37.5t-2 -57.5t-3 -57.5t-2 -37.5 q-2 -51 -9 -105.5t-21.5 -104.5t-36 -92t-54.5 -67h719v-92h-875l3 92q47 20 77.5 61.5t49 92.5t26.5 107.5t10 109.5l11 188h-144v82h148z" />
<glyph unicode="&#xa5;" d="M141 584v65h310q-16 33 -45 89.5t-63 124t-73 141t-72.5 141t-62.5 124t-45 89.5h123q12 -29 40 -86.5t59.5 -122t60 -122.5t41.5 -85l125 -254h6q10 18 27.5 53t37 73t37 74t27.5 54l207 416h120q-16 -33 -45.5 -89.5t-65.5 -124t-75 -141t-74.5 -141t-64.5 -124 t-45 -89.5h313v-65h-803zM944 485v-65h-346v-420h-117v420h-340v65h803z" />
<glyph unicode="&#xa7;" horiz-adv-x="933" d="M815 612q0 -66 -32.5 -133t-108.5 -133q51 -33 82.5 -68.5t48 -69.5t21.5 -62.5t5 -47.5q0 -82 -32.5 -141t-86 -97t-125 -56.5t-147.5 -18.5q-98 0 -168.5 15.5t-130.5 33.5l25 82q90 -29 153.5 -38t122.5 -9q123 0 202 56.5t79 160.5q0 86 -62.5 139.5t-154.5 93.5 q-66 31 -134.5 60t-123.5 65.5t-91 87t-36 123.5q0 74 38 144.5t122 130.5q-72 49 -103 100t-31 117q0 74 27 130t75 93t113.5 56.5t143.5 19.5q98 0 163.5 -14.5t121.5 -32.5l-29 -84q-78 25 -136.5 34t-121.5 9q-47 0 -92 -11.5t-81 -36t-57.5 -63.5t-21.5 -94 q0 -47 28.5 -82t72.5 -64.5t99.5 -55t108.5 -50.5q127 -61 190.5 -127t63.5 -162zM715 598q0 51 -28 91t-76 73t-113.5 63.5t-141.5 67.5q-57 -47 -94 -104.5t-37 -110.5q0 -61 35 -102t88 -72t120 -57.5t130 -59.5q59 55 88 111.5t29 99.5z" />
<glyph unicode="&#xa8;" horiz-adv-x="958" d="M707 1239q0 -31 -22.5 -51.5t-55.5 -20.5q-31 0 -51.5 20.5t-20.5 51.5t21.5 52.5t50.5 21.5q33 0 55.5 -20.5t22.5 -53.5zM373 1239q0 -31 -21.5 -51.5t-56.5 -20.5q-31 0 -52.5 20.5t-21.5 51.5t22.5 52.5t51.5 21.5q35 0 56.5 -20.5t21.5 -53.5z" />
<glyph unicode="&#xa9;" horiz-adv-x="1695" d="M1599 684q0 -154 -59 -288t-161.5 -233.5t-237.5 -157.5t-289 -58t-289 58t-235.5 157.5t-158.5 233.5t-58 288q0 152 58 285t158.5 233.5t235.5 157.5t289 57t289 -57t237.5 -157.5t161.5 -233.5t59 -285zM1526 684q0 137 -52.5 259t-143.5 212t-214 142.5t-264 52.5 q-139 0 -261 -52.5t-214 -142.5t-145.5 -212t-53.5 -259q0 -139 53.5 -260t145.5 -211t214 -142.5t261 -52.5q141 0 264 52.5t214 142.5t143.5 211t52.5 260zM537 666q0 -88 14 -167t53 -137.5t106.5 -93.5t172.5 -35q20 0 50 2.5t62.5 6.5t65.5 10t61 16l19 -69 q-25 -10 -57.5 -18.5t-69.5 -14.5t-75 -9t-73 -3q-115 0 -195.5 36.5t-132 103t-74 162t-22.5 212.5q0 78 18.5 170t66.5 172t132 133t215 53q84 0 146.5 -11t103.5 -28l-20 -76q-61 23 -117.5 30t-105.5 7q-86 0 -150.5 -31.5t-107.5 -91t-64.5 -143.5t-21.5 -186z" />
<glyph unicode="&#xab;" horiz-adv-x="825" d="M131 414l289 309l49 -41l-219 -305l221 -305l-49 -39l-291 307v74zM389 414l289 309l51 -41l-221 -305l223 -305l-51 -39l-291 307v74z" />
<glyph unicode="&#xad;" horiz-adv-x="708" d="M106 477v103h496v-103h-496z" />
<glyph unicode="&#xae;" horiz-adv-x="1173" d="M1063 969q0 -100 -39 -187.5t-104.5 -152t-153.5 -101t-188 -36.5q-102 0 -190.5 35.5t-154 100t-103.5 151.5t-38 190q0 100 38 187t103.5 152.5t153.5 103.5t191 38q100 0 188 -38t153.5 -103.5t104.5 -152.5t39 -187zM1004 969q0 88 -33 164.5t-91.5 135t-136 92.5 t-165.5 34t-166 -34t-135.5 -92.5t-91 -135t-33.5 -164.5t32.5 -165t90 -134.5t135 -90t168.5 -32.5q90 0 167.5 31.5t135 89t90.5 134.5t33 167zM715 1106q0 61 -34 86t-81 25h-119v-224h119q45 0 80 21.5t35 91.5zM719 676l-119 262h-119v-262h-69v596h190q82 0 133 -39 t51 -125q0 -41 -25.5 -90t-90.5 -72l125 -270h-76z" />
<glyph unicode="&#xb0;" horiz-adv-x="694" d="M606 1110q0 -53 -19.5 -100t-54 -81t-80.5 -53.5t-100 -19.5q-123 0 -191.5 72.5t-68.5 181.5q0 51 20.5 98t55.5 83t83 57.5t101 21.5t99.5 -21.5t81 -57.5t54 -83t19.5 -98zM530 1108q0 37 -15 70.5t-39.5 59.5t-57.5 41t-70 15t-69.5 -15t-57 -41t-39 -59.5 t-14.5 -70.5t14.5 -68.5t39 -56.5t57 -39t69.5 -14t70 14t57.5 39t39.5 56.5t15 68.5z" />
<glyph unicode="&#xb4;" horiz-adv-x="983" d="M397 1112l-53 45l229 316l93 -82z" />
<glyph unicode="&#xb6;" horiz-adv-x="1005" d="M451 721q-74 0 -137.5 26.5t-109.5 72.5t-73 109.5t-27 135.5t27 136.5t73 113.5t109.5 77.5t137.5 28.5h370v-1792h-90v1702h-151l2 -1702h-95v1092h-36z" />
<glyph unicode="&#xb7;" horiz-adv-x="368" d="M281 580q0 -37 -28 -65t-63 -28t-63.5 28t-28.5 65t28 62.5t64 25.5q35 0 63 -25.5t28 -62.5z" />
<glyph unicode="&#xb8;" horiz-adv-x="993" d="M627 20q-31 -37 -64 -77.5t-63 -81.5q102 -2 168.5 -37t66.5 -115q0 -82 -85 -142.5t-267 -60.5q0 14 -1 27.5t-1 30.5q133 10 194.5 47t61.5 90q0 47 -45 67.5t-109 22.5q-16 2 -30.5 2h-30.5l-23 33q47 57 90 114.5t91 110.5l47 -31v0z" />
<glyph unicode="&#xbb;" horiz-adv-x="825" d="M713 340l-291 -307l-49 39l221 305l-221 305l51 41l289 -309v-74zM455 340l-291 -307l-51 39l221 305l-219 305l51 41l289 -309v-74z" />
<glyph unicode="&#xbf;" horiz-adv-x="868" d="M367 80q-78 -59 -123 -114.5t-45 -131.5q0 -98 70.5 -139t179.5 -41q63 0 141 10t186 45l25 -88q-94 -35 -187.5 -50t-167.5 -15q-184 0 -276 70.5t-96 195.5q0 98 55 172t129 133q72 55 123 102t84 90t48 84t15 86q0 35 -4 71t-12 79l96 16q12 -59 17.5 -104t5.5 -76 q0 -104 -66.5 -194t-197.5 -201zM434 926q0 37 25.5 62.5t60.5 25.5q37 0 63.5 -25.5t26.5 -62.5q0 -35 -26.5 -60.5t-61.5 -25.5t-61.5 25.5t-26.5 60.5z" />
<glyph unicode="&#x192;" d="M319 803h201q4 43 12.5 101.5t14.5 99.5q10 80 31.5 147.5t57.5 118.5t91 79.5t133 28.5q86 0 166 -24l-25 -82q-45 10 -70.5 13t-60.5 3q-102 0 -151 -75.5t-66 -206.5q-6 -45 -13 -101.5t-11 -101.5h213v-84h-224q-4 -27 -10 -75t-13 -106.5t-15.5 -123t-15.5 -120.5 t-12 -100t-9 -65q-29 -182 -100.5 -281.5t-215.5 -99.5q-41 0 -82 7t-79 26l30 78q39 -10 63.5 -14.5t51.5 -4.5q104 0 149.5 73t73.5 218q10 51 20.5 128t19.5 160t18.5 163t17.5 137h-191v84z" />
<glyph unicode="&#x2c6;" horiz-adv-x="997" d="M782 1106l-297 201l-297 -203l-34 43l286 274h88l291 -270z" />
<glyph unicode="&#x2da;" horiz-adv-x="997" d="M502 1122q-90 0 -145.5 57.5t-55.5 137.5q0 39 15.5 74.5t42 62.5t63.5 42t80 15t77.5 -15t61.5 -42t41 -62.5t14 -74.5q0 -82 -55 -138.5t-139 -56.5zM502 1442q-59 0 -93 -37t-34 -94q0 -53 33.5 -88t93.5 -35q55 0 89 34.5t34 88.5q0 55 -34 93t-89 38z" />
<glyph unicode="&#x2dc;" horiz-adv-x="997" d="M647 1182q-39 0 -80 12t-81 27.5t-75.5 28t-62.5 12.5l-108 -82l-45 30q23 61 64.5 99.5t94.5 38.5q35 0 75 -12.5t80 -26t77 -25.5t65 -12l107 82l43 -33q-23 -59 -62 -99t-92 -40z" />
<glyph unicode="&#x401;" horiz-adv-x="1087" d="M807 1556q0 -33 -22.5 -53t-57.5 -20q-29 0 -49.5 20.5t-20.5 52.5q0 29 20.5 50.5t49.5 21.5q35 0 57.5 -20.5t22.5 -51.5zM473 1556q0 -33 -22.5 -53t-55.5 -20q-31 0 -52 20.5t-21 52.5q0 29 22.5 50.5t50.5 21.5q33 0 55.5 -20.5t22.5 -51.5zM164 0v1399h805v-94 h-684v-517h585v-94h-585v-598h719v-96h-840z" />
<glyph unicode="&#x402;" horiz-adv-x="1495" d="M1407 449q0 -117 -33 -215.5t-86 -178.5t-119.5 -142.5t-134.5 -105.5l-49 68q63 45 117.5 103.5t95.5 128t64.5 149.5t23.5 170q0 166 -84 254t-237 88q-80 0 -177.5 -22.5t-179.5 -57.5v-688h-119v1303h-448v96h1118v-96h-551v-523q92 39 196.5 61.5t190.5 22.5 q106 0 184 -33.5t128.5 -91t75 -133t24.5 -157.5z" />
<glyph unicode="&#x403;" horiz-adv-x="1001" d="M518 1481l-57 45l231 313l92 -82zM164 0v1399h801v-99h-680v-1300h-121z" />
<glyph unicode="&#x404;" horiz-adv-x="1165" d="M1057 129q6 -23 13 -43t11 -43q-35 -12 -82 -23.5t-99 -18.5t-104.5 -11t-97.5 -4q-160 0 -269.5 50t-178 141t-98 221t-29.5 290q0 76 10 159t36 165t69 155.5t107.5 130t152.5 90t207 33.5q113 0 201.5 -16t148.5 -39l-29 -92q-80 27 -161 37t-148 10q-113 0 -197 -38 t-141 -108.5t-89 -171t-40 -225.5q139 2 276.5 5t278.5 8v-107q-141 2 -279.5 4t-279.5 2v-14q0 -115 19.5 -221.5t71.5 -189.5t143 -133t237 -50q27 0 68.5 3t88 8t94.5 14.5t89 21.5z" />
<glyph unicode="&#x405;" horiz-adv-x="1120" d="M567 1423q78 0 176.5 -14t190.5 -59l-39 -93q-104 41 -184 53.5t-152 12.5q-135 0 -224 -69.5t-89 -213.5q0 -63 29.5 -106t76.5 -71.5t108.5 -48t127.5 -36.5q76 -20 154.5 -44.5t142 -67.5t103.5 -112t40 -177q0 -104 -38 -178t-104.5 -122t-157.5 -69.5t-196 -21.5 q-111 0 -226.5 23.5t-211.5 78.5l41 90q119 -57 214 -75.5t179 -18.5q180 0 277.5 65.5t97.5 227.5q0 70 -24.5 117t-68.5 78.5t-104.5 53t-132.5 40.5q-90 25 -172 51t-144 67t-99 101.5t-37 152.5t32.5 164t92 121t141.5 74.5t180 25.5z" />
<glyph unicode="&#x406;" horiz-adv-x="487" d="M184 0v1401h119v-1401h-119z" />
<glyph unicode="&#x407;" horiz-adv-x="487" d="M489 1556q0 -33 -22.5 -53t-56.5 -20q-29 0 -49.5 20.5t-20.5 52.5q0 29 20.5 50.5t49.5 21.5q35 0 57 -20.5t22 -51.5zM156 1556q0 -33 -22.5 -53t-55.5 -20q-31 0 -52.5 20.5t-21.5 52.5q0 29 22.5 50.5t51.5 21.5q33 0 55.5 -20.5t22.5 -51.5zM184 0v1401h119v-1401 h-119z" />
<glyph unicode="&#x408;" horiz-adv-x="579" d="M256 1401h119v-1159q0 -125 -28 -219.5t-82 -167t-134 -126t-182 -96.5l-37 88q92 53 157.5 104.5t107.5 110t60.5 131t18.5 169.5v1165z" />
<glyph unicode="&#x409;" horiz-adv-x="1921" d="M473 1077q-12 -254 -24.5 -447.5t-52.5 -331.5t-120.5 -223t-230.5 -120l-25 88q119 43 182.5 114.5t96.5 191.5t44 295t24 423l16 334h651l2 -594h375q115 0 196 -35t133 -92t75.5 -129t23.5 -145q0 -102 -31.5 -178t-87 -127.5t-129 -76t-159.5 -24.5h-519v1305h-430z M1036 715v-623h385q61 0 115.5 19.5t94.5 58.5t62.5 97.5t22.5 135.5q0 86 -28.5 145.5t-73.5 96.5t-101.5 53.5t-111.5 16.5h-365z" />
<glyph unicode="&#x40a;" horiz-adv-x="1898" d="M1014 807h375q117 0 197.5 -35t131.5 -92t75 -129t24 -145q0 -102 -32 -178t-86 -126.5t-128 -76t-160 -25.5h-520v711h-604v-711h-123v1399h123v-594h604v596h123v-594zM1014 711v-619h385q63 0 116.5 19.5t93.5 57.5t62.5 96.5t22.5 135.5q0 88 -28 147.5t-73 95.5 t-100 51.5t-113 15.5h-366z" />
<glyph unicode="&#x40b;" horiz-adv-x="1517" d="M1376 0h-121v530q0 248 -286 248q-43 0 -93.5 -8t-101.5 -20.5t-100 -30t-86 -35.5v-684h-119v1303h-428v96h1098v-96h-549v-521q117 49 223.5 72t183.5 23q98 0 169 -24t118 -66t69.5 -99t22.5 -123v-565z" />
<glyph unicode="&#x40c;" horiz-adv-x="1150" d="M164 0v1401h121v-604h274q37 0 76 8t73.5 32.5t65.5 67.5t51 113l115 379h113l-107 -377q-31 -104 -80 -175t-127 -95q104 -25 155.5 -94.5t80.5 -170.5l135 -485h-119l-133 463q-23 70 -52.5 115t-66.5 71.5t-77.5 35.5t-83.5 9h-293v-694h-121zM539 1485l-58 45 l232 313l92 -82z" />
<glyph unicode="&#x40e;" horiz-adv-x="1095" d="M168 1399l50 -125t66.5 -168t67.5 -168t51 -125q12 -33 33 -86t42.5 -110.5t42 -111.5t32.5 -87h8q4 10 19.5 51t35 95t40 109.5t34.5 92.5q16 41 39 100.5t47.5 125t50 133t46 125t36 97t19.5 52.5h123l-467 -1215q-39 -98 -96.5 -148t-141.5 -50q-29 0 -77 3t-134 25 l27 99q47 -10 85 -17.5t72 -7.5q59 0 96.5 29.5t65.5 107.5l41 115h-45q-23 55 -56.5 140t-74.5 183.5t-84 206t-83 206t-74.5 183t-57.5 140.5h121zM561 1468q-49 0 -94 17.5t-83 46.5t-71.5 66.5t-60.5 78.5l76 52q51 -74 113.5 -120t127.5 -46q45 0 114 28.5t169 124.5 l43 -35q-86 -121 -171 -167t-163 -46z" />
<glyph unicode="&#x40f;" horiz-adv-x="1282" d="M1116 1397v-1397h-420v-340h-104v340h-428v1397h121v-1305h708v1305h123z" />
<glyph unicode="&#x410;" horiz-adv-x="1128" d="M971 0l-123 383h-576q-31 -98 -59.5 -192.5t-58.5 -190.5h-125l456 1399h156q117 -352 228.5 -700.5t226.5 -698.5h-125zM819 477q-47 150 -93 297.5t-93 294.5q-6 23 -15.5 52.5t-18.5 60t-18.5 60.5t-15.5 52h-6l-70 -225l-184 -592h514z" />
<glyph unicode="&#x411;" horiz-adv-x="1144" d="M922 1307h-662v-500h377q117 0 199 -34t132 -88t72.5 -125t22.5 -144q0 -102 -31 -180t-86 -130.5t-129 -79t-160 -26.5h-520v1399h785v-92zM260 715v-623h389q125 0 209 81t84 237q0 86 -26.5 145t-71.5 94t-101.5 50.5t-115.5 15.5h-367z" />
<glyph unicode="&#x412;" horiz-adv-x="1196" d="M846 723q68 -25 111.5 -66t69.5 -90t36 -100t10 -94q0 -86 -29.5 -154.5t-82 -117t-121 -75t-146.5 -26.5h-530v1397h465q203 0 302 -98.5t99 -251.5q0 -29 -7 -68t-27.5 -82t-56.5 -85t-93 -75v-14zM283 678v-584h370q80 0 137.5 23.5t93.5 64.5t52 93.5t16 111.5 q0 57 -20.5 109.5t-59 92.5t-95 64.5t-126.5 24.5h-368zM283 774h333q135 0 214 70.5t79 189.5q0 57 -17.5 106.5t-54 85.5t-94 56.5t-137.5 20.5h-323v-529z" />
<glyph unicode="&#x413;" horiz-adv-x="1001" d="M164 0v1399h801v-99h-680v-1300h-121z" />
<glyph unicode="&#x414;" horiz-adv-x="1355" d="M123 0v-330h-98v422h106q80 63 128 169t75.5 242t41 301t25.5 347l17 248h731v-1307h125v-422h-98v330h-1053zM510 1135q-14 -199 -28.5 -363t-39 -294t-65.5 -226t-107 -160h758v1215h-506z" />
<glyph unicode="&#x415;" horiz-adv-x="1087" d="M164 0v1399h805v-94h-684v-517h585v-94h-585v-598h719v-96h-840z" />
<glyph unicode="&#x416;" horiz-adv-x="1818" d="M848 0v696h-254q-43 0 -84 -10t-78 -35.5t-67.5 -72t-51.5 -115.5l-133 -463h-119l136 485q29 100 81 170t156 95q-78 25 -127 95t-80 175l-106 377h110l115 -379q20 -70 50 -113t65 -67.5t73.5 -32.5t75.5 -8h238v604h121v-604h237q37 0 75 8t74 32.5t65.5 67.5 t49.5 113l115 379h111l-109 -377q-29 -104 -78 -175t-127 -95q104 -25 155.5 -94.5t80.5 -170.5l135 -485h-115l-135 463q-23 70 -52.5 116t-66 71.5t-76.5 35.5t-83 10h-256v-696h-121z" />
<glyph unicode="&#x417;" horiz-adv-x="1120" d="M741 774q123 -29 200 -118t77 -232q0 -106 -41 -187t-112.5 -136.5t-168 -83t-204.5 -27.5q-117 0 -231 18.5t-206 57.5l31 86q115 -37 211 -50.5t156 -13.5q211 0 326.5 87t115.5 249q0 141 -104.5 220t-282.5 79h-168v92h164q168 0 259 78t91 197t-93 177t-249 58 q-55 0 -156.5 -15.5t-214.5 -68.5l-35 84q86 47 197 71.5t223 24.5q102 0 186.5 -20.5t143.5 -61.5t92 -102t33 -143q0 -51 -17.5 -99.5t-48 -89.5t-74.5 -71.5t-98 -49.5z" />
<glyph unicode="&#x418;" horiz-adv-x="1312" d="M1149 1397v-1397h-119v1206h-6l-739 -1206h-121v1397h119v-1198h6l741 1202z" />
<glyph unicode="&#x419;" horiz-adv-x="1312" d="M1149 1397v-1397h-119v1206h-6l-739 -1206h-121v1397h119v-1198h6l741 1202zM633 1516q-49 0 -94 18t-84 47t-72 67t-59 78l73 52q53 -74 115.5 -119t126.5 -45q45 0 113.5 26.5t169.5 124.5l43 -36q-86 -119 -170 -166t-162 -47z" />
<glyph unicode="&#x41a;" horiz-adv-x="1150" d="M164 0v1401h121v-604h274q37 0 76 8t73.5 32.5t65.5 67.5t51 113l115 379h113l-107 -377q-31 -104 -80 -175t-127 -95q104 -25 155.5 -94.5t80.5 -170.5l135 -485h-119l-133 463q-23 70 -52.5 115t-66.5 71.5t-77.5 35.5t-83.5 9h-293v-694h-121z" />
<glyph unicode="&#x41b;" horiz-adv-x="1261" d="M973 0v1305h-490l-10 -228q-12 -254 -24.5 -447.5t-52.5 -331.5t-120.5 -223t-230.5 -120l-25 88q119 45 183.5 117.5t96.5 191.5t42 293t23 422l16 334h717v-1401h-125z" />
<glyph unicode="&#x41c;" horiz-adv-x="1626" d="M299 1397q111 -242 217.5 -485.5t216.5 -487.5l74 -170h10q20 43 38.5 86t37.5 86q109 242 218.5 485.5t219.5 485.5h129v-1397h-117q0 293 -1 583.5t-1 583.5h-4l-94 -213q-49 -109 -100 -220t-99.5 -218.5t-93.5 -207t-82 -181.5h-116q-14 31 -28.5 63.5t-33 74.5 t-43 94.5t-57.5 123.5q-41 98 -94.5 214t-120.5 264l-90 208h-6v-1169h-115v1397h135v0z" />
<glyph unicode="&#x41d;" horiz-adv-x="1282" d="M993 0v688h-706v-85v-119.5t1 -138.5t1 -138.5v-120.5v-86h-125v1399h125v-126t-1 -178.5t-1 -178.5v-125h706v608h125v-1399h-125z" />
<glyph unicode="&#x41e;" horiz-adv-x="1384" d="M1262 694q0 -152 -35 -280.5t-105.5 -224t-175 -149.5t-241.5 -54q-160 0 -270.5 49t-179.5 139t-100.5 220t-31.5 294q0 143 29.5 276.5t97 234.5t179.5 161.5t276 60.5q166 0 273 -60.5t170.5 -161.5t88.5 -232.5t25 -272.5zM1135 688q0 106 -15.5 220t-61.5 207 t-131 152.5t-222 59.5q-139 0 -227.5 -55t-139.5 -145.5t-70.5 -206t-19.5 -236.5q0 -295 106.5 -449.5t343.5 -154.5q113 0 195 48t135 130t80 192.5t27 237.5z" />
<glyph unicode="&#x41f;" horiz-adv-x="1282" d="M993 0v1296h-706l2 -1296h-125v1401h954v-1401h-125z" />
<glyph unicode="&#x420;" horiz-adv-x="1075" d="M1016 1004q0 -61 -18.5 -134t-63.5 -134.5t-123 -102.5t-197 -41h-329l2 -592h-123v1401h432q88 0 165 -24.5t134 -74t89 -124t32 -174.5zM285 1305v-619h315q53 0 105.5 14.5t93.5 50t66.5 96t25.5 150.5q0 78 -23.5 136.5t-63.5 96.5t-94.5 56.5t-115.5 18.5h-309z" />
<glyph unicode="&#x421;" horiz-adv-x="1165" d="M709 1421q111 0 199.5 -16t148.5 -39l-29 -92q-80 27 -160 38t-149 11q-123 0 -211 -45t-146.5 -128t-86 -199.5t-27.5 -262.5q0 -121 18.5 -229.5t69.5 -192.5t143 -133t240 -49q27 0 68.5 3t88 8t94.5 14.5t89 21.5l24 -86q-35 -14 -82 -25.5t-99 -18.5t-105.5 -11 t-98.5 -4q-160 0 -269.5 50t-177 142t-98 222t-30.5 290q0 113 24.5 241t90 237.5t179.5 181t292 71.5z" />
<glyph unicode="&#x422;" horiz-adv-x="1097" d="M489 0v1303h-450v98h1018v-98h-447l-2 -1303h-119z" />
<glyph unicode="&#x423;" horiz-adv-x="1095" d="M168 1399l50 -125t66.5 -168t67.5 -168t51 -125q12 -33 33 -86t42.5 -110.5t42 -111.5t32.5 -87h8q4 10 19.5 51t35 95t40 109.5t34.5 92.5q16 41 39 100.5t47.5 125t50 133t46 125t36 97t19.5 52.5h123l-467 -1215q-39 -98 -96.5 -148t-141.5 -50q-29 0 -77 3t-134 25 l27 99q47 -10 85 -17.5t72 -7.5q59 0 96.5 29.5t65.5 107.5l41 115h-45q-23 55 -56.5 140t-74.5 183.5t-84 206t-83 206t-74.5 183t-57.5 140.5h121z" />
<glyph unicode="&#x424;" horiz-adv-x="1603" d="M1513 717q0 -113 -43 -209t-125.5 -169t-202.5 -117t-272 -50v-172h-116v172q-174 8 -300 49t-207 110.5t-119 166t-38 213.5q0 100 39 195t120 172t206 126t299 58v137h116v-137q176 -6 299 -54.5t200 -124t110.5 -171t33.5 -195.5zM209 707q0 -213 140 -322t405 -121 v903q-147 -8 -251 -48t-169.5 -102.5t-95 -142t-29.5 -167.5zM1395 711q0 78 -24.5 155.5t-85 142t-162 108.5t-253.5 50v-903q125 4 222.5 41t165 96.5t102.5 139.5t35 170z" />
<glyph unicode="&#x425;" horiz-adv-x="1081" d="M467 725q-102 168 -204.5 336t-207.5 338h135q88 -150 175.5 -296.5t177.5 -293.5l354 590h133q-104 -172 -209.5 -340t-210.5 -338l443 -721h-135l-381 635l-379 -635h-131q111 182 220 362.5t220 362.5z" />
<glyph unicode="&#x426;" horiz-adv-x="1327" d="M1118 92h137v-422h-100v330h-991v1397h121v-1305h708v1305h123z" />
<glyph unicode="&#x427;" horiz-adv-x="1202" d="M1038 0h-120v637q-55 -20 -115 -34.5t-115 -23t-104 -12.5t-82 -4q-197 0 -294 87t-97 224v523h122v-486q0 -129 70 -189t217 -60q43 0 93.5 4t102.5 13t104 23.5t98 34.5v660h120v-1397z" />
<glyph unicode="&#x428;" horiz-adv-x="1798" d="M842 1399h121v-1307h548v1307h121l2 -1399h-1470v1399h119v-1307h559v1307z" />
<glyph unicode="&#x429;" horiz-adv-x="1843" d="M164 1399h119v-1307h559v1307h121v-1307h548v1307h123v-1307h138v-422h-101v330h-1507v1399z" />
<glyph unicode="&#x42a;" horiz-adv-x="1511" d="M621 807h380q115 0 196 -35t133 -92t76 -129t24 -145q0 -102 -32 -178t-87.5 -127.5t-129 -76t-159.5 -24.5h-524l2 1303h-473v96h594v-592zM621 715v-623h391q61 0 115.5 19.5t93.5 58.5t61.5 97.5t22.5 135.5q0 86 -28 145.5t-72 96.5t-100 53.5t-112 16.5h-372z" />
<glyph unicode="&#x42b;" horiz-adv-x="1558" d="M285 715v-623h389q61 0 115.5 19.5t94.5 58.5t63.5 97.5t23.5 135.5q0 86 -29 145.5t-74 96.5t-101 53.5t-112 16.5h-370zM285 807h379q115 0 196.5 -36t134 -92t76 -129t23.5 -147q0 -102 -32 -176.5t-87 -126t-130 -76t-159 -24.5h-522v1401h121v-594zM1276 0v1401h119 v-1401h-119z" />
<glyph unicode="&#x42c;" horiz-adv-x="1175" d="M285 715v-623h389q61 0 115.5 19.5t94.5 58.5t63.5 97.5t23.5 135.5q0 86 -29 145.5t-74 96.5t-101 53.5t-112 16.5h-370zM285 807h379q115 0 196.5 -36t134 -92t76 -129t23.5 -147q0 -102 -32 -176.5t-87 -126t-130 -76t-159 -24.5h-522v1401h121v-594z" />
<glyph unicode="&#x42d;" horiz-adv-x="1146" d="M432 -14q-106 0 -206.5 15t-168.5 42l25 90q96 -29 186 -39t148 -10q143 0 237.5 51t148.5 137t75.5 200t21.5 237q-37 0 -117 -2t-167 -4.5t-166.5 -3.5t-116.5 -1v107l567 -10q-4 117 -28.5 214t-79 166.5t-138.5 108.5t-202 39q-63 0 -149.5 -12.5t-168.5 -36.5 l-24 90q59 23 152 40t188 17q178 0 290.5 -60.5t175 -157.5t86 -219t23.5 -243q0 -160 -33 -297t-103.5 -239.5t-183 -160.5t-272.5 -58z" />
<glyph unicode="&#x42e;" horiz-adv-x="1806" d="M164 0v1399h119v-617h305q8 129 39.5 245t97.5 203t168 138t254 51q166 0 270.5 -60.5t163.5 -161.5t80.5 -232t21.5 -273q0 -152 -31.5 -280.5t-98 -223t-168 -147.5t-238.5 -55q-154 0 -261.5 49t-174 140t-96 221t-29.5 294h-303v-690h-119zM1559 686q0 106 -12.5 220 t-55.5 207t-125 152.5t-219 59.5q-139 0 -224 -55.5t-133.5 -145.5t-64.5 -205.5t-16 -236.5q0 -147 22.5 -260t73.5 -189.5t133 -115.5t201 -39q113 0 192.5 48t129.5 130t74 192.5t24 237.5z" />
<glyph unicode="&#x42f;" horiz-adv-x="1169" d="M152 1014q0 80 24.5 150.5t74.5 122.5t128 83t184 31h443v-1401h-121v629h-248q-53 0 -101.5 -10.5t-89 -36t-73.5 -69.5t-54 -112l-116 -401h-121l119 418q27 86 71.5 150.5t128.5 90.5q-66 16 -112.5 51t-77.5 82.5t-45 104t-14 117.5zM885 725v578h-310 q-129 0 -215 -73t-86 -220q0 -82 24 -136.5t64.5 -87t95 -47t113.5 -14.5h314z" />
<glyph unicode="&#x430;" horiz-adv-x="1036" d="M516 1010q152 0 235 -74t83 -252v-594h135q4 -16 4 -33.5t2 -33.5q-35 -16 -76 -24.5t-74 -8.5q-57 0 -82.5 27.5t-21.5 95.5l-4 2q-59 -47 -111.5 -73t-96.5 -38t-79 -14t-59 -2q-84 0 -140.5 25.5t-89 65.5t-46 89t-13.5 94q0 137 91 210t235 83l313 16v82 q0 139 -47 199.5t-182 60.5q-76 0 -156 -16t-156 -43l-28 80q86 37 182 56.5t182 19.5zM436 473q-117 -4 -174 -57.5t-57 -141.5q0 -100 50 -149t159 -49q72 0 148.5 37t158.5 104v272z" />
<glyph unicode="&#x431;" horiz-adv-x="997" d="M477 1366q33 14 78 31.5t92 37t90 38t74 34.5q10 -18 20.5 -38.5t20.5 -38.5q-98 -51 -185 -87t-153 -63q-166 -68 -237.5 -188.5t-88.5 -305.5l5 -2q47 92 134 147.5t201 55.5q111 0 185.5 -43t119 -112.5t62.5 -158.5t18 -181q0 -90 -19.5 -180.5t-67.5 -163 t-131 -117.5t-210 -45q-123 0 -200.5 44t-122.5 114.5t-62.5 157.5t-17.5 173q2 184 7 289.5t15 165.5q31 152 121 261t252 175zM512 899q-90 0 -149.5 -41t-95.5 -103.5t-51 -138t-15 -143.5t10 -139.5t41 -129t89 -94t157 -36.5q92 0 150.5 36.5t91 96t44 132.5t11.5 144 q0 63 -10.5 137t-41 135.5t-86 102.5t-145.5 41z" />
<glyph unicode="&#x432;" horiz-adv-x="964" d="M535 997q160 0 239.5 -70.5t79.5 -181.5q0 -53 -27.5 -115.5t-113.5 -103.5q51 -16 84.5 -44.5t53 -63.5t28 -72t8.5 -70q0 -61 -23.5 -112t-65.5 -87t-96.5 -56.5t-115.5 -20.5h-465v997h414zM233 475v-383h314q61 0 104 16.5t71 44t40 63.5t12 73q0 74 -58.5 130 t-168.5 56h-314zM233 905v-344h295q94 0 152.5 47t58.5 125q0 76 -53 124t-176 48h-277z" />
<glyph unicode="&#x433;" horiz-adv-x="784" d="M121 0v997h649v-92h-539v-905h-110z" />
<glyph unicode="&#x434;" horiz-adv-x="1091" d="M926 90h88v-362h-92v272h-797v-272h-94v362h82q57 41 91 112.5t52 165t26.5 204t14.5 231.5l10 194h619v-907zM410 905l-7 -119q-6 -119 -13 -222t-22.5 -191t-43 -160t-72.5 -123h559v815h-401z" />
<glyph unicode="&#x435;" horiz-adv-x="995" d="M520 928q-80 0 -135 -31t-89 -82t-51.5 -117.5t-23.5 -138.5h570q0 80 -13.5 147.5t-44.5 116.5t-83 77t-130 28zM518 1014q96 0 163 -28t110 -72t65.5 -99t32.5 -107.5t11 -98.5t1 -72v-60h-682q0 -80 13.5 -151.5t48 -127t94 -88t151.5 -32.5q90 0 161 18.5t157 57.5 l30 -78q-86 -47 -169.5 -68.5t-182.5 -21.5q-127 0 -209 41t-129 109.5t-65.5 160.5t-18.5 197q0 41 5.5 96t21.5 112.5t45 113.5t75 100.5t112.5 71t158.5 26.5z" />
<glyph unicode="&#x436;" horiz-adv-x="1454" d="M670 0v487h-154q-41 0 -78 -4t-68.5 -20.5t-57 -48t-44.5 -86.5q-27 -84 -53.5 -165t-52.5 -163h-111l111 344q23 70 57.5 118t106.5 70q-53 20 -85 69.5t-57 119.5q-23 72 -45 140.5t-45 137.5h107l94 -276q18 -53 42.5 -84t54.5 -45t62.5 -17.5t67.5 -3.5h148v426h112 v-426h146q35 0 67.5 3.5t62 17.5t54.5 45t43 84l94 276h109l-92 -278q-23 -70 -55.5 -119t-86.5 -70q72 -23 108 -70.5t58 -117.5l111 -344h-113l-106 326q-18 55 -44 87.5t-57.5 49t-68.5 20.5t-78 4h-152v-487h-112z" />
<glyph unicode="&#x437;" horiz-adv-x="888" d="M389 -14q-90 0 -182 16t-158 45q2 6 5 16.5t8.5 22.5t9.5 23.5t6 15.5q72 -25 147.5 -39t147.5 -14q141 0 225 54t84 175q0 53 -23.5 91t-61.5 61.5t-87 35t-98 11.5h-146v82h125q53 0 100.5 10t82 32.5t55 57.5t20.5 82q0 78 -60.5 120t-176.5 42q-59 0 -129 -11.5 t-170 -52.5q-4 10 -13.5 39t-13.5 39q72 35 163 55.5t177 20.5q156 0 247 -62.5t91 -179.5q0 -86 -52.5 -144.5t-127.5 -80.5v-4q88 -20 150.5 -83t62.5 -165q0 -78 -31 -135.5t-85 -97t-129 -59t-163 -19.5z" />
<glyph unicode="&#x438;" horiz-adv-x="1015" d="M782 0v836h-6q-23 -35 -62.5 -96.5t-86.5 -135.5q-53 -80 -111.5 -169t-113 -172t-100.5 -151.5t-75 -111.5h-106v997h110v-827h9q33 49 64.5 100.5t64.5 98.5q25 39 64.5 98t83.5 127t90 135.5t83 124.5t62.5 96t31.5 47h111v-997h-113z" />
<glyph unicode="&#x439;" horiz-adv-x="1015" d="M782 0v836h-6q-23 -35 -62.5 -96.5t-86.5 -135.5q-53 -80 -111.5 -169t-113 -172t-100.5 -151.5t-75 -111.5h-106v997h110v-827h9q33 49 64.5 100.5t64.5 98.5q25 39 64.5 98t83.5 127t90 135.5t83 124.5t62.5 96t31.5 47h111v-997h-113zM487 1112q-49 0 -94 18.5t-84 47 t-71.5 66.5t-59.5 79l74 51q53 -74 115.5 -119t126.5 -45q45 0 113.5 27t168.5 125l43 -37q-86 -119 -170 -166t-162 -47z" />
<glyph unicode="&#x43a;" horiz-adv-x="937" d="M121 0v1001h110v-428h222q29 0 56.5 6.5t53 22.5t47 45t37.5 76q8 25 20.5 61.5t26 76.5t26.5 78t21 60h107q-8 -23 -20.5 -60.5t-24.5 -77.5t-24.5 -78t-20.5 -60q-23 -70 -55.5 -119t-86.5 -72q72 -20 108 -68t58 -118l111 -346h-111q-10 27 -24.5 71t-29.5 93 t-30.5 94t-23.5 72v-2q-35 98 -90.5 128.5t-120.5 30.5h-232v-487h-110z" />
<glyph unicode="&#x43b;" horiz-adv-x="989" d="M754 0v905h-383l-11 -151q-10 -158 -21 -291t-42 -234.5t-90.5 -169t-169.5 -94.5l-29 82q84 33 130 88t69.5 140t32 205t18.5 282l14 235h596v-997h-114z" />
<glyph unicode="&#x43c;" horiz-adv-x="1275" d="M1044 0v797h-4q-18 -39 -35.5 -77t-35.5 -75q-14 -29 -53 -105.5t-83.5 -165.5t-85 -169t-57.5 -115h-86l-299 572l-72 143h-6v-805h-106v997h123q27 -47 63.5 -118.5t77.5 -154.5t86 -170t86 -165l90 -176h2l131 270q20 43 60.5 121t80.5 160t72.5 148.5t42.5 84.5h119 v-997h-111z" />
<glyph unicode="&#x43d;" horiz-adv-x="1003" d="M768 0v483h-535v-483h-112v997h115v-419h532v419h115v-997h-115z" />
<glyph unicode="&#x43e;" horiz-adv-x="1034" d="M936 494q0 -92 -19.5 -183.5t-67.5 -164t-130 -116.5t-207 -44q-121 0 -200 42t-126 111.5t-66.5 160.5t-19.5 189t22.5 192.5t73 168.5t132.5 119t198 45q121 0 200 -45t126 -119t65.5 -167t18.5 -189zM817 489q0 72 -11 149t-42 139.5t-88.5 103.5t-149.5 41 t-151.5 -39t-94 -100.5t-48 -139.5t-13.5 -156q0 -80 11.5 -153.5t45 -130t93 -91t157.5 -34.5q90 0 147.5 37t89.5 96t43 132.5t11 145.5z" />
<glyph unicode="&#x43f;" horiz-adv-x="1005" d="M768 0v905h-532v-905h-115v995h762v-995h-115z" />
<glyph unicode="&#x440;" horiz-adv-x="1017" d="M240 893q66 53 147.5 85t165.5 32q102 0 172 -39t112 -105.5t60 -157t18 -192.5q0 -111 -20.5 -208t-67.5 -168.5t-121.5 -112.5t-181.5 -41q-59 0 -138 14t-153 61v-491h-112v1427h106q0 -6 1 -20t1 -29.5t1 -29t1 -19.5zM233 158q45 -31 123 -56.5t154 -25.5 q59 0 112.5 22.5t92.5 74.5t61.5 137t22.5 210q0 113 -19.5 187.5t-56.5 120.5t-88 65.5t-113 19.5q-35 0 -74.5 -10t-79.5 -27.5t-75 -39t-60 -43.5v-635z" />
<glyph unicode="&#x441;" horiz-adv-x="911" d="M219 492q0 -86 14.5 -161t50 -130.5t95 -88t149.5 -32.5q82 0 149.5 17.5t147.5 49.5l31 -79q-61 -35 -148 -58.5t-186 -23.5q-117 0 -197.5 37.5t-131 103.5t-72 157t-21.5 199q0 51 7.5 110.5t25 119t49 115t79.5 97.5t115.5 66.5t160.5 24.5q70 0 141.5 -11.5 t138.5 -39.5l-31 -86q-74 27 -134 34t-107 7q-164 0 -245 -117.5t-81 -310.5z" />
<glyph unicode="&#x442;" horiz-adv-x="872" d="M381 905h-352v92h813v-92h-348v-905h-113v905z" />
<glyph unicode="&#x443;" horiz-adv-x="888" d="M530 354q25 76 52.5 162t54.5 172t52.5 166t45.5 143h117q-18 -53 -49 -148t-69 -212t-79 -244t-79.5 -242.5t-69.5 -211t-49 -148.5q-35 -109 -91.5 -172t-160.5 -63q-29 2 -79 5t-128 25l18 86q59 -12 94 -17t70 -5q29 0 52.5 4t45 19.5t39 45t33.5 78.5l68 207h-60 q-14 47 -39.5 126t-56.5 174t-65.5 197.5t-65.5 198t-57.5 173t-40.5 124.5h112q8 -27 24.5 -78t36 -113.5t42 -131t42 -131t36 -113.5t24.5 -80l86 -272h8z" />
<glyph unicode="&#x444;" horiz-adv-x="1312" d="M602 -14q-150 6 -250 47t-159.5 107.5t-85 155.5t-25.5 191q0 109 29.5 202t92 163t161 111t237.5 47l-2 440h111v-440q139 -2 237.5 -40t162 -103.5t92 -157t28.5 -199.5q0 -106 -27.5 -198.5t-89 -163t-161 -113.5t-242.5 -49v-410h-111zM711 74q119 6 197.5 41 t124.5 92t65.5 133t19.5 160q0 86 -17.5 160.5t-63.5 131t-124.5 90t-201.5 38.5v-846zM602 920q-117 -6 -195.5 -41t-127 -91.5t-67.5 -132t-19 -161.5q0 -90 19 -166t66.5 -131.5t126 -87t197.5 -35.5v846z" />
<glyph unicode="&#x445;" horiz-adv-x="831" d="M414 451q-70 -115 -137.5 -226.5t-139.5 -224.5h-123q84 131 165 262t167 262q-74 119 -148.5 237t-150.5 236h129l238 -395q61 98 119.5 197.5t119.5 197.5h127q-76 -119 -151.5 -235.5t-149.5 -233.5q86 -133 169 -264t169 -264h-131z" />
<glyph unicode="&#x446;" horiz-adv-x="1058" d="M768 997h113v-905h112v-364h-94v272h-778v997h112v-905h535v905z" />
<glyph unicode="&#x447;" horiz-adv-x="948" d="M713 0v485q-88 -57 -182.5 -77.5t-165.5 -20.5q-100 0 -156.5 28.5t-84.5 72.5t-34 98.5t-6 107.5v303h113v-270q0 -59 6 -104t26.5 -77t58.5 -48.5t99 -16.5q72 0 162 21.5t164 77.5v419h114v-999h-114z" />
<glyph unicode="&#x448;" horiz-adv-x="1409" d="M1176 997h114v-997h-1167v997h110v-905h414v905h115v-905h414v905z" />
<glyph unicode="&#x449;" horiz-adv-x="1452" d="M1176 997h114v-905h111v-364h-94v272h-1184v997h110v-905h414v905h115v-905h414v905z" />
<glyph unicode="&#x44a;" horiz-adv-x="1226" d="M502 608h336q90 0 152.5 -27.5t101 -71.5t56 -98.5t17.5 -105.5q0 -72 -24.5 -129t-67.5 -96t-100.5 -59.5t-122.5 -20.5h-461v905h-362v92h475v-389zM502 520v-430h334q96 0 156.5 55.5t60.5 157.5q0 57 -19.5 99t-52.5 68t-75 38t-87 12h-317z" />
<glyph unicode="&#x44b;" horiz-adv-x="1257" d="M1024 0v997h115v-997h-115zM233 520v-428h336q94 0 154.5 54.5t60.5 156.5q0 57 -19.5 99t-52 68t-74.5 38t-87 12h-318zM233 997v-389h336q92 0 154.5 -27.5t100.5 -71.5t55.5 -98.5t17.5 -105.5q0 -72 -24.5 -129t-67.5 -96t-100.5 -59.5t-122.5 -20.5h-461v997h112z " />
<glyph unicode="&#x44c;" horiz-adv-x="958" d="M233 520v-428h336q94 0 154.5 54.5t60.5 156.5q0 57 -19.5 99t-52 68t-74.5 38t-87 12h-318zM233 997v-389h336q92 0 154.5 -27.5t100.5 -71.5t55.5 -98.5t17.5 -105.5q0 -72 -24.5 -129t-67.5 -96t-100.5 -59.5t-122.5 -20.5h-461v997h112z" />
<glyph unicode="&#x44d;" horiz-adv-x="903" d="M377 1016q133 0 217 -46t131 -119t63.5 -160t16.5 -169q0 -104 -23.5 -200.5t-76 -171t-135.5 -119.5t-201 -45q-96 0 -178 22.5t-146 57.5l31 75q80 -35 143.5 -50t145.5 -15t143 33.5t100 91t58.5 132.5t19.5 159l-422 -5v88l422 -8q-6 166 -83 262.5t-230 96.5 q-47 0 -107.5 -6.5t-148.5 -36.5l-29 75q59 27 134 42.5t155 15.5z" />
<glyph unicode="&#x44e;" horiz-adv-x="1339" d="M121 0v997h110v-430h197q8 86 34.5 167t76 143.5t124 99.5t179.5 37q117 0 193.5 -46t121.5 -120t63.5 -167t18.5 -187q0 -92 -18.5 -182.5t-65.5 -163t-127 -117.5t-203 -45q-117 0 -192.5 43t-121.5 113.5t-65.5 159.5t-19.5 183h-195v-485h-110zM1122 489 q0 70 -10 146t-41 139.5t-86 105.5t-143 42q-90 0 -147.5 -39t-91.5 -101.5t-47 -140.5t-13 -154q0 -78 10 -151.5t41 -131t90 -93t158 -35.5q88 0 142 39t85 99t42 132.5t11 142.5z" />
<glyph unicode="&#x44f;" horiz-adv-x="976" d="M741 432h-231q-82 0 -141.5 -29.5t-89.5 -119.5l-97 -283h-116l102 301q18 55 48 99t91 67v2q-98 29 -140 95.5t-42 148.5q0 55 18.5 105t58.5 90t103.5 63.5t151.5 23.5h397v-995h-113v432zM471 905q-102 0 -166.5 -44t-64.5 -146q0 -55 19.5 -92t52 -59.5t74.5 -32 t87 -9.5h268v383h-270z" />
<glyph unicode="&#x451;" horiz-adv-x="995" d="M520 928q-80 0 -135 -31t-89 -82t-51.5 -117.5t-23.5 -138.5h570q0 80 -13.5 147.5t-44.5 116.5t-83 77t-130 28zM518 1014q96 0 163 -28t110 -72t65.5 -99t32.5 -107.5t11 -98.5t1 -72v-60h-682q0 -80 13.5 -151.5t48 -127t94 -88t151.5 -32.5q90 0 161 18.5t157 57.5 l30 -78q-86 -47 -169.5 -68.5t-182.5 -21.5q-127 0 -209 41t-129 109.5t-65.5 160.5t-18.5 197q0 41 5.5 96t21.5 112.5t45 113.5t75 100.5t112.5 71t158.5 26.5zM752 1253q0 -31 -22.5 -51t-55.5 -20q-31 0 -51.5 20.5t-20.5 50.5q0 31 21.5 52.5t50.5 21.5 q33 0 55.5 -20.5t22.5 -53.5zM418 1253q0 -31 -21.5 -51t-56.5 -20q-31 0 -52.5 20.5t-21.5 50.5q0 31 22.5 52.5t51.5 21.5q35 0 56.5 -20.5t21.5 -53.5z" />
<glyph unicode="&#x452;" horiz-adv-x="1017" d="M244 870q193 84 334 84q168 0 256 -119.5t88 -392.5q0 -102 -19.5 -191t-69 -155.5t-132.5 -104.5t-207 -38v82q78 2 137 23.5t98 69.5t58.5 126t19.5 192q0 121 -18.5 201t-52.5 128t-82 67.5t-107 19.5q-33 0 -72 -7t-79 -18.5t-80 -26.5t-72 -30v-780h-115v1139h-117 v71h117v242h115v-242h438v-71h-438v-269v0z" />
<glyph unicode="&#x453;" horiz-adv-x="784" d="M121 0v997h649v-92h-539v-905h-110zM373 1151l-54 45l230 315l92 -81z" />
<glyph unicode="&#x454;" horiz-adv-x="921" d="M219 473q2 -84 17.5 -155.5t51.5 -125t94 -84t144 -30.5q84 0 151.5 17.5t147.5 49.5l31 -77q-61 -35 -148 -57.5t-186 -22.5q-117 0 -197.5 36.5t-131 103.5t-72 157t-21.5 196q0 78 16.5 171t64.5 174t133 135.5t221 54.5q72 0 143.5 -11.5t138.5 -39.5l-31 -86 q-76 27 -135 34t-106 7q-154 0 -234 -101.5t-90 -271.5l416 10v-90z" />
<glyph unicode="&#x455;" horiz-adv-x="876" d="M125 143q88 -43 164 -55t131 -12t102 10t82 32.5t55.5 58.5t20.5 85q0 45 -20.5 76t-53.5 54.5t-76 40t-88 32.5q-63 20 -121.5 42.5t-104.5 54.5t-73.5 76t-27.5 110q0 70 27.5 121t73.5 82.5t107.5 47t129.5 15.5q53 0 133 -13.5t145 -48.5q-6 -16 -16 -42.5t-19 -41.5 q-74 29 -134 40.5t-111 11.5q-92 0 -159 -40t-67 -135q0 -39 22.5 -67.5t57.5 -50t75 -37t75 -25.5q61 -20 121.5 -41.5t108.5 -54.5t77 -82t29 -123t-29 -126t-80 -86t-118.5 -50t-143.5 -16q-88 0 -178 18.5t-156 56.5z" />
<glyph unicode="&#x456;" horiz-adv-x="460" d="M172 0v997h115v-997h-115zM313 1253q0 -33 -24.5 -57.5t-59.5 -24.5t-58.5 25t-23.5 57q0 35 24 60.5t58 25.5q35 0 59.5 -25.5t24.5 -60.5z" />
<glyph unicode="&#x457;" horiz-adv-x="460" d="M172 0v997h115v-997h-115zM477 1239q0 -31 -22.5 -51.5t-55.5 -20.5q-31 0 -51 20.5t-20 51.5t21.5 52.5t49.5 21.5q33 0 55.5 -20.5t22.5 -53.5zM143 1239q0 -31 -21.5 -51.5t-55.5 -20.5q-31 0 -52.5 20.5t-21.5 51.5t22.5 52.5t51.5 21.5q35 0 56 -20.5t21 -53.5z" />
<glyph unicode="&#x458;" horiz-adv-x="479" d="M186 997h115v-1001q-2 -86 -17.5 -151.5t-52 -117t-96 -92.5t-151.5 -77l-35 80q74 41 120 77.5t72.5 77.5t36.5 89t10 112zM164 1253q0 35 23.5 60.5t58.5 25.5t59.5 -25.5t24.5 -60.5q0 -33 -24.5 -57.5t-59.5 -24.5t-58.5 24.5t-23.5 57.5z" />
<glyph unicode="&#x459;" horiz-adv-x="1529" d="M803 610h336q92 0 155.5 -27.5t101.5 -72.5t55 -99.5t17 -105.5q0 -72 -24.5 -129t-67.5 -96t-100 -59.5t-123 -20.5h-463v905h-319l-9 -151q-8 -168 -19 -302.5t-42 -233.5t-92.5 -162.5t-171.5 -90.5l-29 82q82 31 128 82t70.5 135t34 206t19.5 292l12 235h531v-387z M803 520v-428h336q96 0 156.5 54.5t60.5 156.5q0 57 -19.5 99t-52.5 68t-75 38t-87 12h-319z" />
<glyph unicode="&#x45a;" horiz-adv-x="1517" d="M793 598h325q92 0 155.5 -25.5t104.5 -66.5t59.5 -95.5t18.5 -111.5q0 -72 -24.5 -127t-66.5 -94t-99.5 -58.5t-122.5 -19.5h-461v508h-449v-508h-110v997h110v-399h449l-2 399h113v-399zM793 508v-416h335q96 0 157 51.5t61 155.5q0 57 -19.5 97t-52.5 64.5t-75 36 t-87 11.5h-319z" />
<glyph unicode="&#x45b;" horiz-adv-x="1026" d="M788 0v637q0 55 -5 101t-24.5 79t-58 50.5t-104.5 17.5q-39 0 -83 -10.5t-89 -25.5t-87 -34.5t-79 -40.5v-774h-117v1135h-137v71h137v248h115v-248h399v-71h-399v-273q102 53 201.5 86t171.5 33q100 0 155.5 -29.5t82 -75t31.5 -99.5t5 -105v-672h-115z" />
<glyph unicode="&#x45c;" horiz-adv-x="937" d="M121 0v1001h110v-428h222q29 0 56.5 6.5t53 22.5t47 45t37.5 76q8 25 20.5 61.5t26 76.5t26.5 78t21 60h107q-8 -23 -20.5 -60.5t-24.5 -77.5t-24.5 -78t-20.5 -60q-23 -70 -55.5 -119t-86.5 -72q72 -20 108 -68t58 -118l111 -346h-111q-10 27 -24.5 71t-29.5 93 t-30.5 94t-23.5 72v-2q-35 98 -90.5 128.5t-120.5 30.5h-232v-487h-110zM426 1112l-53 45l229 316l92 -82z" />
<glyph unicode="&#x45e;" horiz-adv-x="888" d="M444 76q6 16 30 96t56 182q25 76 52.5 162t54.5 172t52.5 166t45.5 143h117q-18 -53 -49 -148t-69 -212t-79 -244t-79.5 -242.5t-69.5 -211t-49 -148.5q-35 -109 -91.5 -172t-160.5 -63q-29 2 -79 5t-128 25l18 86q59 -12 94 -17t70 -5q29 0 52.5 4t45 19.5t39 45 t33.5 78.5l68 207h-60q-14 47 -39.5 126t-56.5 174t-65.5 197.5t-65.5 198t-57.5 173t-40.5 124.5h112q8 -27 24.5 -78t36 -113.5t42 -131t42 -131t36 -113.5t24.5 -80l86 -274h8zM434 1130q-49 0 -94 18.5t-84 47.5t-71.5 66.5t-59.5 78.5l74 52q53 -74 115.5 -119 t125.5 -45q45 0 114 26.5t169 124.5l43 -37q-86 -119 -170 -166t-162 -47z" />
<glyph unicode="&#x45f;" horiz-adv-x="1003" d="M453 0h-332v997h115v-905h534v905h113v-997h-332v-287h-98v287z" />
<glyph unicode="&#x490;" horiz-adv-x="1001" d="M164 0v1399h710v260h99v-352h-688v-1307h-121z" />
<glyph unicode="&#x491;" horiz-adv-x="786" d="M672 1204h86v-299h-527v-905h-110v997h551v207z" />
<glyph unicode="&#x4d9;" horiz-adv-x="954" d="M469 78q80 0 134 30.5t89 81t51.5 117t22.5 137.5h-565q0 -80 13 -147.5t44 -116.5t82 -75.5t129 -26.5zM467 -14q-94 0 -159.5 27.5t-107.5 72.5t-64.5 99.5t-33 107.5t-12.5 98t-2 72v59h680q0 80 -13.5 153t-47 127t-93 87t-151.5 33q-90 0 -160 -17.5t-156 -54.5 l-30 76q86 47 169 67.5t181 20.5q127 0 209 -40t129 -109.5t64.5 -161t17.5 -195.5q0 -41 -5 -96.5t-21.5 -112.5t-45.5 -113.5t-76 -100.5t-113.5 -71.5t-158.5 -27.5z" />
<glyph unicode="&#x2000;" horiz-adv-x="921" />
<glyph unicode="&#x2001;" horiz-adv-x="1843" />
<glyph unicode="&#x2002;" horiz-adv-x="921" />
<glyph unicode="&#x2003;" horiz-adv-x="1843" />
<glyph unicode="&#x2004;" horiz-adv-x="614" />
<glyph unicode="&#x2005;" horiz-adv-x="460" />
<glyph unicode="&#x2006;" horiz-adv-x="307" />
<glyph unicode="&#x2007;" horiz-adv-x="307" />
<glyph unicode="&#x2008;" horiz-adv-x="230" />
<glyph unicode="&#x2009;" horiz-adv-x="368" />
<glyph unicode="&#x200a;" horiz-adv-x="102" />
<glyph unicode="&#x2010;" horiz-adv-x="708" d="M106 477v103h496v-103h-496z" />
<glyph unicode="&#x2011;" horiz-adv-x="708" d="M106 477v103h496v-103h-496z" />
<glyph unicode="&#x2012;" horiz-adv-x="708" d="M106 477v103h496v-103h-496z" />
<glyph unicode="&#x2013;" horiz-adv-x="1024" d="M57 473v94h914v-94h-914z" />
<glyph unicode="&#x2014;" horiz-adv-x="2048" d="M61 473v94h1917v-94h-1917z" />
<glyph unicode="&#x2018;" horiz-adv-x="413" d="M301 1163q0 -35 -25.5 -60.5t-60.5 -25.5q-43 0 -69.5 30t-26.5 79q0 33 12 71.5t33.5 74.5t51.5 68t65 54l28 -39q-72 -78 -73 -170q29 -6 47 -27.5t18 -54.5z" />
<glyph unicode="&#x2019;" horiz-adv-x="413" d="M131 1368q0 35 24.5 61.5t61.5 26.5q43 0 68.5 -29.5t25.5 -78.5q0 -35 -11 -73t-32.5 -74t-51.5 -68.5t-64 -53.5l-31 39q37 39 54.5 81t21.5 89q-31 6 -48.5 27.5t-17.5 52.5z" />
<glyph unicode="&#x201a;" horiz-adv-x="346" d="M82 72q0 35 24.5 60.5t61.5 25.5q43 0 68.5 -30t25.5 -77q0 -35 -11 -74.5t-31.5 -77.5t-50.5 -73t-65 -55l-30 36q35 41 53 89.5t20 95.5q-29 6 -47 27.5t-18 52.5z" />
<glyph unicode="&#x201c;" horiz-adv-x="620" d="M299 1163q0 -35 -24.5 -60.5t-61.5 -25.5q-43 0 -69.5 30t-26.5 79q0 70 45 146.5t117 121.5q6 -8 15 -18.5t15 -20.5q-37 -39 -54 -81t-22 -89q29 -6 47.5 -27.5t18.5 -54.5zM522 1163q0 -35 -24.5 -60.5t-61.5 -25.5q-43 0 -69.5 30t-26.5 79q0 33 12.5 71.5t34 74.5 t51 68t64.5 54l30 -39q-74 -76 -75 -170q29 -6 47 -27.5t18 -54.5z" />
<glyph unicode="&#x201d;" horiz-adv-x="620" d="M354 1368q0 35 23.5 61.5t62.5 26.5q43 0 69 -29.5t26 -78.5q0 -35 -11.5 -73t-33 -74t-51 -68.5t-66.5 -53.5l-31 39q74 76 76 170q-64 14 -64 80zM131 1368q0 35 23.5 61.5t62.5 26.5q43 0 68.5 -29.5t25.5 -78.5q0 -35 -11 -73t-32.5 -74t-51.5 -68.5t-64 -53.5 l-33 39q39 39 56.5 81t21.5 89q-31 6 -48.5 27.5t-17.5 52.5z" />
<glyph unicode="&#x201e;" horiz-adv-x="571" d="M82 72q0 35 24.5 60.5t61.5 25.5q43 0 68.5 -30t25.5 -77q0 -35 -11 -74.5t-31.5 -77.5t-50.5 -73t-65 -55l-30 36q35 41 53 89.5t20 95.5q-29 6 -47 27.5t-18 52.5zM309 72q0 35 24.5 60.5t61.5 25.5q43 0 68.5 -30t25.5 -77q0 -35 -11 -74.5t-31.5 -77.5t-50 -73 t-64.5 -55l-31 36q35 41 53.5 89.5t20.5 95.5q-29 6 -47.5 27.5t-18.5 52.5z" />
<glyph unicode="&#x2020;" horiz-adv-x="944" d="M518 891v-1008h-104v1008h-334v94h334v414h104v-414h334v-94h-334z" />
<glyph unicode="&#x2021;" horiz-adv-x="944" d="M414 373v518h-334v94h334v414h104v-414h334v-94h-334v-518h332v-94h-332v-396h-104v396h-334v94h334z" />
<glyph unicode="&#x2022;" horiz-adv-x="593" d="M475 555q0 -76 -52 -129t-128 -53q-74 0 -126 53t-52 129q0 78 52 130t126 52q76 0 128 -52t52 -130z" />
<glyph unicode="&#x2026;" horiz-adv-x="1167" d="M1061 76q0 -35 -25.5 -61.5t-60.5 -26.5t-60.5 26.5t-25.5 61.5t25.5 59.5t60.5 24.5t60.5 -24.5t25.5 -59.5zM651 76q0 -35 -24.5 -61.5t-59.5 -26.5t-60.5 26.5t-25.5 61.5t24.5 59.5t61.5 24.5q35 0 59.5 -24.5t24.5 -59.5zM262 76q0 -35 -25.5 -61.5t-58.5 -26.5 q-35 0 -61.5 26.5t-26.5 61.5t26.5 59.5t61.5 24.5t59.5 -24.5t24.5 -59.5z" />
<glyph unicode="&#x202f;" horiz-adv-x="368" />
<glyph unicode="&#x2039;" horiz-adv-x="626" d="M133 414l289 309l51 -41l-221 -305l221 -305l-49 -39l-291 307v74z" />
<glyph unicode="&#x203a;" horiz-adv-x="626" d="M467 340l-291 -307l-49 39l221 305l-219 305l49 41l289 -309v-74z" />
<glyph unicode="&#x205f;" horiz-adv-x="460" />
<glyph unicode="&#x20ac;" d="M895 629v-68h-631q6 -98 28.5 -185t72 -152.5t130 -103.5t203.5 -38q47 0 129 8t195 37l20 -88q-33 -12 -76.5 -21.5t-92 -16.5t-97.5 -11t-92 -4q-135 0 -233.5 41t-163 115.5t-98 181t-39.5 237.5h-93v68h838zM57 741v66h97q8 98 40.5 199.5t96 183.5t162 133t239.5 51 q104 0 185 -15.5t145 -39.5l-25 -88q-84 29 -166.5 38t-134.5 9q-98 0 -172.5 -34t-128 -95.5t-85 -148.5t-42.5 -193h627v-66h-838z" />
<glyph unicode="&#x2116;" horiz-adv-x="2033" d="M1053 205v1194h118v-1399h-118q-25 39 -73 113.5t-107.5 167t-124 193.5t-123 193.5t-105.5 167t-71 113.5l-160 264q-2 0 -4 -1t-4 -1v-1210h-117v1399h123q25 -37 72 -111t106 -166t123.5 -193.5t123 -193.5t105.5 -165.5t72 -110.5l155 -254h9zM1632 1395 q84 0 139.5 -30t87 -79t45 -110.5t13.5 -122.5t-13.5 -122t-46 -108t-89 -76.5t-142.5 -29.5q-84 0 -139 27.5t-89 73.5t-48.5 106.5t-14.5 126.5q0 63 15.5 124.5t50.5 110.5t91 79t140 30zM1823 1051q0 45 -7.5 93t-28 88t-57 66.5t-98.5 26.5q-61 0 -101 -24.5 t-63.5 -64.5t-32 -89t-8.5 -98t7.5 -96.5t29 -83t62.5 -57t106 -21.5q59 0 97 23.5t58.5 60t28 83t7.5 93.5zM1339 526v88h574v-88h-574z" />
<glyph unicode="&#x2122;" horiz-adv-x="1390" d="M1094 1231q20 41 39.5 83t42.5 83h81v-635h-75v493h-2q-25 -49 -48.5 -97t-50.5 -97l-94 -195h-67q-25 49 -47.5 97.5t-45.5 95.5l-46 94t-46 96h-2v-487h-78v635h84l99 -201q29 -61 58.5 -122.5t59.5 -123.5zM285 764v567h-207v66h502v-66h-213v-567h-82z" />
<glyph unicode="&#x25ca;" horiz-adv-x="1067" d="M102 713l390 684h86l387 -684l-387 -713h-86zM537 113l317 600l-317 571l-330 -571z" />
<glyph unicode="&#x25fc;" horiz-adv-x="993" d="M0 993h993v-993h-993v993z" />
</font>
</defs>
</svg>
